%TF.GenerationSoftware,Altium Limited,Altium Designer,24.9.1 (31)*%
G04 Layer_Color=16711935*
%FSLAX45Y45*%
%MOMM*%
%TF.SameCoordinates,87F55232-172A-40C5-9850-FF0673041AA3*%
%TF.FilePolarity,Negative*%
%TF.FileFunction,Soldermask,Bot*%
%TF.Part,Single*%
G01*
G75*
%TA.AperFunction,ViaPad*%
%ADD50C,0.63500*%
%ADD84C,1.72720*%
%TA.AperFunction,ComponentPad*%
%ADD85R,1.80320X1.80320*%
%ADD86C,1.80320*%
%ADD87C,1.20320*%
%ADD88O,2.20320X1.65320*%
%ADD89O,2.00320X1.35320*%
%ADD90C,1.00320*%
%ADD91R,4.26720X2.74320*%
%ADD92R,2.74320X4.26720*%
%ADD93R,1.81320X1.80320*%
%ADD94O,1.81320X1.80320*%
%ADD95C,3.20000*%
%TA.AperFunction,ViaPad*%
%ADD96C,0.71120*%
%TA.AperFunction,SMDPad,CuDef*%
%ADD97R,4.40320X3.40320*%
D50*
X863600Y1554480D02*
D03*
D84*
X7700000Y300000D02*
D03*
Y5700000D02*
D03*
X300000Y300000D02*
D03*
Y5700000D02*
D03*
D85*
X6989000Y5597000D02*
D03*
X4699000Y5676900D02*
D03*
X4700000Y400000D02*
D03*
X1099820Y2500000D02*
D03*
Y3300000D02*
D03*
X6989000Y657000D02*
D03*
D86*
X6735000Y5597000D02*
D03*
X6481000D02*
D03*
X6227000D02*
D03*
X5973000D02*
D03*
X5719000D02*
D03*
X5465000D02*
D03*
X5211000D02*
D03*
Y5343000D02*
D03*
X5465000D02*
D03*
X5719000D02*
D03*
X5973000D02*
D03*
X6227000D02*
D03*
X6481000D02*
D03*
X6735000D02*
D03*
X6989000D02*
D03*
X3683000Y5676900D02*
D03*
X3937000D02*
D03*
X4191000D02*
D03*
X4445000D02*
D03*
X4446000Y400000D02*
D03*
X4192000D02*
D03*
X3938000D02*
D03*
X1607820Y2500000D02*
D03*
X1353820D02*
D03*
X1607820Y3300000D02*
D03*
X1353820D02*
D03*
X6989000Y403000D02*
D03*
X6735000D02*
D03*
X6481000D02*
D03*
X6227000D02*
D03*
X5973000D02*
D03*
X5719000D02*
D03*
X5465000D02*
D03*
X5211000D02*
D03*
Y657000D02*
D03*
X5465000D02*
D03*
X5719000D02*
D03*
X5973000D02*
D03*
X6227000D02*
D03*
X6481000D02*
D03*
X6735000D02*
D03*
D87*
X4454000Y5163500D02*
D03*
X4327000D02*
D03*
X4200000D02*
D03*
X4073000D02*
D03*
X3946000D02*
D03*
X4454000Y5036500D02*
D03*
X4327000D02*
D03*
X4200000D02*
D03*
X4073000D02*
D03*
X3946000D02*
D03*
D88*
X632900Y1363100D02*
D03*
Y618100D02*
D03*
D89*
X252900Y1378100D02*
D03*
Y603100D02*
D03*
D90*
X527900Y1240600D02*
D03*
Y740600D02*
D03*
D91*
X913500Y4496000D02*
D03*
D92*
X532500Y5004000D02*
D03*
X1167500D02*
D03*
D93*
X4701000Y1027000D02*
D03*
D94*
X4447000D02*
D03*
X4193000D02*
D03*
X3939000D02*
D03*
Y773000D02*
D03*
X4193000D02*
D03*
X4447000D02*
D03*
X4701000D02*
D03*
D95*
X431800Y3370000D02*
D03*
Y2430000D02*
D03*
Y2900000D02*
D03*
D96*
X3020060Y2395220D02*
D03*
X5671820Y2865120D02*
D03*
X2296160Y619760D02*
D03*
X3373120Y5173980D02*
D03*
X3388360Y576580D02*
D03*
X3373120Y5415280D02*
D03*
X4559300Y2682240D02*
D03*
Y2811780D02*
D03*
Y2936240D02*
D03*
Y3065780D02*
D03*
Y3192780D02*
D03*
Y3317240D02*
D03*
Y3441700D02*
D03*
X3507740Y2092960D02*
D03*
X5417820Y2273300D02*
D03*
X5552440Y2331720D02*
D03*
X5163820Y2214880D02*
D03*
X5034280D02*
D03*
X4780280D02*
D03*
X3230880Y1998980D02*
D03*
X2979420Y3406140D02*
D03*
X3371244Y4411044D02*
D03*
X2230120Y909320D02*
D03*
X1606833Y215295D02*
D03*
X1274316Y1911186D02*
D03*
X1838960Y3299460D02*
D03*
X3375660Y2062480D02*
D03*
X2973585Y1616195D02*
D03*
X2623820Y1610360D02*
D03*
X1771650Y2228850D02*
D03*
X4734560Y4632960D02*
D03*
X4650740Y4549140D02*
D03*
X4803140Y4706620D02*
D03*
X4881880Y4785360D02*
D03*
X4955540Y4879340D02*
D03*
X4020820Y4368800D02*
D03*
X165100Y3741420D02*
D03*
X5605780Y3126740D02*
D03*
X5539740Y3756660D02*
D03*
X5419876Y3759907D02*
D03*
X6431280Y3787140D02*
D03*
X6187440Y3789680D02*
D03*
X6057900D02*
D03*
X5925820D02*
D03*
X5801360Y3792220D02*
D03*
X3006680Y2026576D02*
D03*
X1767840Y1074420D02*
D03*
X1976120Y1617980D02*
D03*
X1607820Y1686560D02*
D03*
X3373120Y1788160D02*
D03*
X2971800Y1338580D02*
D03*
X2849880Y2608580D02*
D03*
X2496820Y1610360D02*
D03*
X2362200Y1336040D02*
D03*
X1102547Y2956373D02*
D03*
X1335566Y5478893D02*
D03*
X2061075Y3610254D02*
D03*
X1607820Y2842260D02*
D03*
D97*
X3700780Y4396160D02*
D03*
Y1466160D02*
D03*
%TF.MD5,0747a474f252ed18aaefe825c79576a8*%
M02*
