%TF.GenerationSoftware,Altium Limited,Altium Designer,24.9.1 (31)*%
G04 Layer_Color=65535*
%FSLAX45Y45*%
%MOMM*%
%TF.SameCoordinates,87F55232-172A-40C5-9850-FF0673041AA3*%
%TF.FilePolarity,Positive*%
%TF.FileFunction,Legend,Top*%
%TF.Part,Single*%
G01*
G75*
%TA.AperFunction,NonConductor*%
%ADD53C,0.00000*%
%ADD54C,0.25000*%
%ADD55C,0.25400*%
%ADD56C,0.20000*%
%ADD57C,0.30000*%
%ADD58C,0.05000*%
%ADD59C,0.20320*%
%ADD60C,0.12700*%
%ADD61C,0.15240*%
%ADD62C,0.17780*%
%ADD63C,0.10000*%
G36*
X7410914Y1456962D02*
X7411655Y1455481D01*
Y1422892D01*
X7410914Y1420670D01*
Y1419929D01*
X7410174Y1417707D01*
X7409433Y1416966D01*
X7408692Y1416226D01*
X7407211Y1416966D01*
X7406470Y1417707D01*
X7405730Y1419188D01*
Y1421410D01*
X7404989Y1423632D01*
Y1424373D01*
X7403508Y1431780D01*
X7359808Y1432520D01*
Y1441408D01*
X7382028D01*
X7387954D01*
X7393138Y1442149D01*
X7396101D01*
X7399064Y1442890D01*
X7401286D01*
X7402026Y1443630D01*
X7402767D01*
X7403508Y1444371D01*
X7404248Y1445112D01*
X7405730Y1448815D01*
Y1453259D01*
X7406470Y1456222D01*
X7407211Y1457703D01*
X7408692D01*
X7410174D01*
X7410914Y1456962D01*
D02*
G37*
G36*
X7410174Y1405116D02*
X7410914D01*
X7411655Y1403634D01*
Y1396969D01*
X7410914Y1391784D01*
Y1385118D01*
X7410174Y1381415D01*
Y1378452D01*
X7409433Y1376230D01*
X7408692Y1374008D01*
Y1373267D01*
X7405730Y1370305D01*
X7402767Y1368083D01*
X7399804Y1366601D01*
X7398323D01*
X7393138D01*
X7389435Y1368083D01*
X7386472Y1369564D01*
X7385732Y1370305D01*
X7384250Y1372527D01*
X7382769Y1374749D01*
X7382028Y1376971D01*
Y1377711D01*
X7381288Y1381415D01*
X7380547Y1385859D01*
X7379806Y1390303D01*
Y1394006D01*
X7379066Y1394747D01*
X7378325Y1396228D01*
X7377584Y1396969D01*
X7373140Y1397709D01*
X7369437D01*
X7366474Y1398450D01*
X7364252D01*
X7362030Y1399190D01*
X7361290D01*
X7359808Y1399931D01*
X7359068Y1401412D01*
Y1405856D01*
X7384250D01*
X7391657D01*
X7397582D01*
X7401286D01*
X7402767D01*
X7405730D01*
X7407211D01*
X7410174Y1405116D01*
D02*
G37*
G36*
X7364993Y1363639D02*
X7365734Y1362898D01*
X7366474D01*
X7367215Y1360676D01*
Y1358454D01*
X7366474Y1357713D01*
X7364993Y1356973D01*
X7364252D01*
X7363512D01*
X7362030D01*
X7360549D01*
X7359808Y1357713D01*
X7359068Y1359195D01*
Y1359935D01*
X7359808Y1362898D01*
X7360549Y1363639D01*
X7362030Y1364379D01*
X7363512D01*
X7364993Y1363639D01*
D02*
G37*
G36*
X7568676Y1456962D02*
X7573120D01*
X7575342D01*
X7576823D01*
X7577564D01*
X7578304D01*
X7579045Y1455481D01*
X7579786Y1452518D01*
Y1388821D01*
X7579045Y1385118D01*
Y1381415D01*
X7578304Y1376230D01*
X7577564Y1371786D01*
X7576823Y1369564D01*
Y1368823D01*
X7572379Y1362157D01*
X7567935Y1357713D01*
X7564972Y1354751D01*
X7564232Y1354010D01*
X7563491D01*
X7556825Y1350307D01*
X7550900Y1348825D01*
X7546456Y1348085D01*
X7544974D01*
X7544234D01*
X7539049Y1348825D01*
X7534605Y1349566D01*
X7531643Y1351047D01*
X7530902Y1351788D01*
X7526458Y1354751D01*
X7523495Y1357713D01*
X7520533Y1359935D01*
X7519792Y1361417D01*
X7514607Y1367342D01*
X7511645Y1360676D01*
X7507941Y1354751D01*
X7503497Y1350307D01*
X7499053Y1347344D01*
X7495350Y1344381D01*
X7490906Y1342900D01*
X7487943Y1342159D01*
X7485721Y1341419D01*
X7484981D01*
X7478315D01*
X7472389Y1342159D01*
X7467205Y1343641D01*
X7462761Y1345863D01*
X7459057Y1348085D01*
X7456095Y1350307D01*
X7454613Y1351788D01*
X7453873Y1352529D01*
X7448688Y1357713D01*
X7445726Y1362898D01*
X7444985Y1367342D01*
X7444244Y1368083D01*
Y1368823D01*
X7443504Y1373267D01*
Y1379933D01*
X7442763Y1388081D01*
Y1396228D01*
X7442022Y1403634D01*
Y1416226D01*
X7441282Y1456962D01*
X7508682Y1457703D01*
X7519051D01*
X7527939D01*
X7536087D01*
X7543493D01*
X7548678D01*
X7553122D01*
X7556084D01*
X7556825D01*
X7563491D01*
X7568676Y1456962D01*
D02*
G37*
G36*
X7469427Y1718417D02*
X7470167Y1716935D01*
X7471649Y1715454D01*
X7473130Y1712491D01*
X7475352Y1708788D01*
X7480537Y1699159D01*
X7486462Y1689531D01*
X7492387Y1679902D01*
X7497572Y1671014D01*
X7499053Y1668052D01*
X7500535Y1665089D01*
X7502016Y1663608D01*
Y1662867D01*
X7513126Y1643610D01*
X7523495Y1626574D01*
X7531643Y1611020D01*
X7539049Y1597688D01*
X7544974Y1587319D01*
X7547196Y1582875D01*
X7549418Y1579172D01*
X7550900Y1576209D01*
X7552381Y1573987D01*
X7553122Y1573247D01*
Y1572506D01*
X7558306Y1563618D01*
X7562010Y1555471D01*
X7564232Y1552508D01*
X7564972Y1550286D01*
X7566454Y1548805D01*
Y1548064D01*
X7569416Y1543620D01*
X7570898Y1540657D01*
X7574601Y1535473D01*
X7576082Y1533251D01*
X7576823Y1532510D01*
X7582008Y1524363D01*
X7467205Y1522881D01*
X7352402Y1522141D01*
X7333885Y1489552D01*
X7327960Y1479182D01*
X7322035Y1469554D01*
X7319813Y1465850D01*
X7317591Y1462888D01*
X7316850Y1460666D01*
X7316109Y1459925D01*
X7310184Y1448815D01*
X7307962Y1444371D01*
X7305740Y1440668D01*
X7304259Y1437705D01*
X7302777Y1435483D01*
X7302037Y1434742D01*
Y1434002D01*
X7297593Y1426595D01*
X7293149Y1419188D01*
X7291667Y1416226D01*
X7290186Y1413263D01*
X7289445Y1411782D01*
X7288705Y1411041D01*
X7282779Y1400672D01*
X7277595Y1391784D01*
X7276113Y1388821D01*
X7274632Y1386599D01*
X7273151Y1385118D01*
Y1384377D01*
X7268707Y1375489D01*
X7265004Y1368083D01*
X7262782Y1365120D01*
X7262041Y1362898D01*
X7260560Y1361417D01*
Y1360676D01*
X7258338Y1356232D01*
X7256116Y1353269D01*
X7253894Y1348085D01*
X7252412Y1345863D01*
X7251672Y1345122D01*
X7249450Y1340678D01*
X7247228Y1337715D01*
X7245746Y1334753D01*
X7245006Y1333271D01*
X7243524Y1331049D01*
X7242784Y1330309D01*
X7241302Y1329568D01*
X7239821Y1328827D01*
X7239080Y1329568D01*
X7238340Y1330309D01*
X7236858Y1332531D01*
X7233896Y1338456D01*
X7231674Y1341419D01*
X7230192Y1344381D01*
X7229452Y1345863D01*
X7228711Y1346603D01*
X7221304Y1359195D01*
X7217601Y1365861D01*
X7213898Y1371786D01*
X7210935Y1376971D01*
X7208713Y1381415D01*
X7207232Y1384377D01*
X7206491Y1385118D01*
X7196862Y1401412D01*
X7192418Y1408819D01*
X7188715Y1416226D01*
X7185752Y1422151D01*
X7182790Y1426595D01*
X7181308Y1429558D01*
X7180568Y1431039D01*
X7176124Y1439186D01*
X7171680Y1446593D01*
X7167977Y1452518D01*
X7165014Y1456962D01*
X7162792Y1461406D01*
X7161311Y1463628D01*
X7159829Y1465110D01*
Y1465850D01*
X7154645Y1474738D01*
X7150201Y1482886D01*
X7148719Y1486589D01*
X7147238Y1488811D01*
X7145757Y1490292D01*
Y1491033D01*
X7141313Y1498439D01*
X7137609Y1503624D01*
X7136128Y1507327D01*
X7135387Y1508068D01*
X7127240Y1521400D01*
X7130203Y1527325D01*
X7131684Y1530288D01*
X7133906Y1534732D01*
X7137609Y1539917D01*
X7140572Y1545842D01*
X7144275Y1551767D01*
X7146497Y1556952D01*
X7148719Y1559915D01*
X7149460Y1561396D01*
X7156126Y1573247D01*
X7163533Y1585097D01*
X7170939Y1597688D01*
X7178346Y1610280D01*
X7184271Y1620649D01*
X7189456Y1629537D01*
X7190937Y1632500D01*
X7192418Y1634722D01*
X7193900Y1636203D01*
Y1636944D01*
X7200566Y1649535D01*
X7204269Y1655460D01*
X7207232Y1660645D01*
X7209454Y1665089D01*
X7211676Y1668792D01*
X7212416Y1671014D01*
X7213157Y1671755D01*
X7216860Y1677680D01*
X7220564Y1683605D01*
X7223526Y1688049D01*
X7225748Y1691753D01*
X7227230Y1695456D01*
X7228711Y1697678D01*
X7229452Y1698419D01*
Y1699159D01*
X7243524Y1722120D01*
X7354624D01*
X7466464D01*
X7469427Y1718417D01*
D02*
G37*
G36*
X7404989Y1342900D02*
X7407952D01*
X7409433D01*
X7410174Y1341419D01*
X7410914Y1340678D01*
X7411655Y1339197D01*
Y1336975D01*
X7410914Y1336234D01*
X7410174Y1335493D01*
X7409433D01*
X7407211Y1334753D01*
X7404248D01*
X7402026D01*
X7401286D01*
X7391657Y1334012D01*
Y1319939D01*
X7390916Y1318458D01*
Y1313273D01*
X7391657Y1312533D01*
X7392398Y1311792D01*
X7396101Y1311051D01*
X7396842D01*
X7397582D01*
X7403508Y1310311D01*
X7407211D01*
X7408692Y1309570D01*
X7409433D01*
X7410914Y1308089D01*
X7411655Y1306607D01*
Y1305126D01*
X7410914Y1303645D01*
X7410174Y1302164D01*
X7408692D01*
X7407952D01*
X7406470D01*
X7403508Y1301423D01*
X7396101D01*
X7391657D01*
X7388694D01*
X7386472D01*
X7385732D01*
X7359808D01*
Y1305126D01*
X7360549Y1308089D01*
X7361290Y1309570D01*
X7363512Y1310311D01*
X7367215D01*
X7369437Y1311051D01*
X7370918D01*
X7382769Y1311792D01*
Y1333271D01*
X7370918Y1334012D01*
X7365734D01*
X7362771D01*
X7361290Y1334753D01*
X7360549D01*
X7359808Y1335493D01*
X7359068Y1336975D01*
Y1339197D01*
X7359808Y1343641D01*
X7382769D01*
X7390176D01*
X7396101D01*
X7399064D01*
X7400545D01*
X7404989Y1342900D01*
D02*
G37*
G36*
X7394620Y1288091D02*
X7399064Y1285869D01*
X7402767Y1284388D01*
X7405730Y1282166D01*
X7407952Y1279944D01*
X7409433Y1277722D01*
X7410174Y1276981D01*
Y1276240D01*
X7410914Y1272537D01*
Y1270315D01*
X7411655Y1267352D01*
Y1265130D01*
X7412396Y1263649D01*
Y1259205D01*
X7411655Y1256983D01*
X7410914Y1256242D01*
Y1255502D01*
X7409433Y1251798D01*
X7408692Y1250317D01*
X7407952Y1249576D01*
X7405730Y1247354D01*
X7404989Y1246614D01*
X7404248D01*
X7401286Y1245132D01*
X7400545D01*
X7399064Y1245873D01*
X7398323Y1247354D01*
X7397582Y1248836D01*
Y1249576D01*
X7398323Y1251798D01*
X7399804Y1254020D01*
X7400545Y1255502D01*
X7401286Y1256242D01*
X7403508Y1257724D01*
X7404248Y1259205D01*
X7404989Y1259946D01*
Y1260686D01*
X7405730Y1262168D01*
Y1268834D01*
X7404989Y1271056D01*
X7404248Y1271796D01*
Y1272537D01*
X7402767Y1274018D01*
X7401286Y1274759D01*
X7399804Y1275500D01*
X7399064Y1276240D01*
X7394620Y1278462D01*
X7393138Y1279203D01*
X7392398D01*
X7389435D01*
X7387213D01*
X7384250D01*
X7383510D01*
X7379066D01*
X7376103Y1278462D01*
X7374622D01*
X7373881D01*
X7370918Y1276240D01*
X7370178Y1274759D01*
X7369437D01*
X7367215Y1271056D01*
X7366474Y1267352D01*
X7365734Y1265130D01*
Y1264390D01*
X7367215Y1260686D01*
X7368696Y1257724D01*
X7370178Y1256242D01*
X7370918Y1255502D01*
X7374622Y1252539D01*
X7375362Y1251798D01*
X7376103Y1250317D01*
Y1248095D01*
X7375362Y1246614D01*
X7373881Y1245873D01*
X7370918Y1245132D01*
X7368696Y1245873D01*
X7367956Y1246614D01*
X7364252Y1249576D01*
X7361290Y1253280D01*
X7359808Y1256242D01*
X7359068Y1256983D01*
Y1257724D01*
X7358327Y1262168D01*
X7357587Y1265871D01*
X7358327Y1268834D01*
Y1269574D01*
X7359808Y1274018D01*
X7362030Y1277722D01*
X7363512Y1280684D01*
X7364252Y1281425D01*
X7367956Y1284388D01*
X7371659Y1286610D01*
X7379806Y1288091D01*
X7382769Y1288832D01*
X7385732D01*
X7387954D01*
X7388694D01*
X7394620Y1288091D01*
D02*
G37*
G36*
X7576823Y1304386D02*
X7578304D01*
X7579045D01*
X7579786Y1303645D01*
Y1279203D01*
X7549418Y1278462D01*
X7540531D01*
X7533865Y1277722D01*
X7529421D01*
X7528680D01*
X7527939D01*
X7524977D01*
X7523495Y1276981D01*
X7520533D01*
X7519792D01*
X7520533Y1276240D01*
X7521273Y1275500D01*
X7524236Y1272537D01*
X7527199Y1269574D01*
X7528680Y1268093D01*
X7536087Y1261427D01*
X7542753Y1254020D01*
X7545715Y1251798D01*
X7547937Y1249576D01*
X7549418Y1248095D01*
X7550159Y1247354D01*
X7580526Y1218468D01*
Y1193286D01*
X7579786Y1191064D01*
Y1186620D01*
X7579045Y1185879D01*
X7577564Y1187361D01*
X7574601Y1189583D01*
X7571638Y1191805D01*
X7570898Y1193286D01*
X7570157D01*
X7564232Y1199211D01*
X7558306Y1205137D01*
X7553862Y1209581D01*
X7553122Y1210321D01*
X7552381Y1211062D01*
X7544974Y1217728D01*
X7539049Y1222912D01*
X7535346Y1226616D01*
X7534605Y1228097D01*
X7533865D01*
X7529421Y1231800D01*
X7527199Y1234022D01*
X7526458Y1234763D01*
X7525717D01*
X7524236Y1233282D01*
X7519792Y1231060D01*
X7515348Y1228838D01*
X7513867Y1227356D01*
X7513126D01*
X7503497Y1220690D01*
X7493869Y1214765D01*
X7490165Y1211803D01*
X7487203Y1209581D01*
X7484981Y1208840D01*
X7484240Y1208099D01*
X7472389Y1200693D01*
X7467205Y1196989D01*
X7462761Y1194767D01*
X7459798Y1192545D01*
X7456835Y1191064D01*
X7455354Y1189583D01*
X7454613D01*
X7450910Y1187361D01*
X7447948Y1185139D01*
X7445726Y1184398D01*
X7444244Y1183657D01*
X7442022Y1182917D01*
X7441282Y1183657D01*
Y1202915D01*
X7442022Y1206618D01*
X7442763Y1209581D01*
X7443504Y1211803D01*
X7444244Y1214765D01*
X7444985Y1215506D01*
X7447207Y1216987D01*
X7451651Y1219950D01*
X7456835Y1222912D01*
X7462761Y1226616D01*
X7467945Y1229578D01*
X7473130Y1232541D01*
X7476093Y1234763D01*
X7477574Y1235504D01*
X7485721Y1240688D01*
X7491647Y1244392D01*
X7496091Y1247354D01*
X7496831Y1248095D01*
X7497572D01*
X7500535Y1249576D01*
X7502757Y1251058D01*
X7505719Y1253280D01*
X7506460Y1254020D01*
X7505719Y1254761D01*
X7504979Y1256242D01*
X7504238Y1257724D01*
X7503497Y1258464D01*
X7499053Y1264390D01*
X7496831Y1266612D01*
X7496091Y1267352D01*
X7484981Y1278462D01*
X7466464D01*
X7460539D01*
X7455354D01*
X7452391Y1279203D01*
X7450910D01*
X7447207D01*
X7445726D01*
X7444244D01*
X7442763Y1282166D01*
X7442022Y1285869D01*
X7441282Y1289572D01*
Y1296979D01*
X7442022Y1300682D01*
X7442763Y1302164D01*
Y1302904D01*
X7443504Y1303645D01*
X7444985D01*
X7449429Y1304386D01*
X7453873Y1305126D01*
X7454613D01*
X7455354D01*
X7461279D01*
X7469427D01*
X7479055D01*
X7487943D01*
X7496831D01*
X7504979D01*
X7507201D01*
X7509423D01*
X7510904D01*
X7511645D01*
X7521273D01*
X7530902D01*
X7539049D01*
X7545715D01*
X7551640D01*
X7555344D01*
X7558306D01*
X7559047D01*
X7565713D01*
X7570898D01*
X7573860D01*
X7576823Y1304386D01*
D02*
G37*
G36*
X7406470Y1231060D02*
X7408692D01*
X7410174Y1230319D01*
X7410914Y1228838D01*
X7411655Y1228097D01*
X7412396Y1224394D01*
Y1222912D01*
X7411655Y1219950D01*
X7410914Y1218468D01*
X7410174Y1216987D01*
X7409433D01*
X7407952Y1216246D01*
X7405730Y1215506D01*
X7399804Y1213284D01*
X7397582Y1212543D01*
X7394620Y1211803D01*
X7393138Y1211062D01*
X7392398D01*
X7388694Y1210321D01*
X7385732Y1209581D01*
X7383510Y1208840D01*
X7382769D01*
X7380547Y1207359D01*
X7379066Y1206618D01*
X7378325Y1205877D01*
X7379066Y1205137D01*
X7381288Y1204396D01*
X7383510Y1202915D01*
X7384250D01*
X7390916Y1200693D01*
X7397582Y1199211D01*
X7400545Y1198471D01*
X7403508Y1197730D01*
X7404989Y1196989D01*
X7405730D01*
X7408692Y1196249D01*
X7410174Y1195508D01*
X7410914Y1194767D01*
X7411655Y1193286D01*
X7412396Y1191064D01*
Y1181435D01*
X7387213Y1179954D01*
X7380547D01*
X7375362D01*
X7371659D01*
X7370918D01*
X7370178D01*
X7365734D01*
X7362771Y1180695D01*
X7361290Y1181435D01*
X7360549D01*
X7359808Y1182176D01*
X7359068Y1182917D01*
Y1185139D01*
X7359808Y1186620D01*
X7361290Y1187361D01*
X7362030Y1188101D01*
X7362771D01*
X7364252D01*
X7366474D01*
X7372400D01*
X7377584Y1188842D01*
X7379066D01*
X7379806D01*
X7384991D01*
X7389435D01*
X7391657Y1189583D01*
X7392398D01*
X7395360Y1190323D01*
X7396101D01*
Y1191064D01*
X7394620Y1191805D01*
X7392398Y1192545D01*
X7390176Y1193286D01*
X7389435Y1194027D01*
X7385732Y1194767D01*
X7381288Y1196249D01*
X7379066Y1196989D01*
X7377584D01*
X7373881Y1197730D01*
X7370178Y1199211D01*
X7365734Y1199952D01*
X7363512Y1201433D01*
X7362771D01*
X7361290Y1202174D01*
X7359808Y1202915D01*
X7359068Y1203655D01*
Y1208099D01*
X7359808Y1209581D01*
Y1210321D01*
X7361290Y1211062D01*
X7362771Y1211803D01*
X7364993Y1212543D01*
X7365734D01*
X7370178Y1214024D01*
X7374622Y1214765D01*
X7377584Y1215506D01*
X7379066Y1216246D01*
X7383510Y1216987D01*
X7387213Y1218468D01*
X7390176Y1219209D01*
X7390916D01*
X7394620Y1219950D01*
X7396842Y1220690D01*
X7397582Y1221431D01*
X7396842D01*
X7395360D01*
X7393138Y1222172D01*
X7392398D01*
X7388694D01*
X7384991D01*
X7382028D01*
X7380547D01*
X7376103D01*
X7372400D01*
X7366474Y1222912D01*
X7363512Y1223653D01*
X7362771D01*
X7360549Y1225134D01*
X7359068Y1226616D01*
Y1228097D01*
X7359808Y1229578D01*
X7361290Y1230319D01*
X7362771Y1231060D01*
X7363512D01*
X7365734D01*
X7368696D01*
X7375362D01*
X7379066Y1231800D01*
X7382028D01*
X7383510D01*
X7384250D01*
X7392398D01*
X7397582D01*
X7401286D01*
X7402026D01*
X7406470Y1231060D01*
D02*
G37*
G36*
X7670147Y1521400D02*
X7681997D01*
X7693107D01*
X7702736D01*
X7709402D01*
X7712365D01*
X7714587D01*
X7715327D01*
X7716068D01*
X7808651D01*
X7813095Y1515475D01*
X7813836Y1513993D01*
X7815317Y1511031D01*
X7819761Y1504365D01*
X7821242Y1501402D01*
X7823464Y1498439D01*
X7824205Y1496217D01*
X7824945Y1495477D01*
X7833093Y1481404D01*
X7836796Y1474738D01*
X7840499Y1468813D01*
X7844203Y1462888D01*
X7846425Y1459184D01*
X7847906Y1456222D01*
X7848647Y1455481D01*
X7857535Y1438446D01*
X7861979Y1431039D01*
X7865682Y1424373D01*
X7868645Y1418448D01*
X7870867Y1414004D01*
X7872348Y1411041D01*
X7873089Y1410300D01*
X7877533Y1402153D01*
X7881977Y1395487D01*
X7884939Y1390303D01*
X7887902Y1385859D01*
X7890124Y1382155D01*
X7891605Y1379933D01*
X7892346Y1379193D01*
Y1378452D01*
X7896049Y1371786D01*
X7899753Y1365861D01*
X7902715Y1360676D01*
X7903456Y1359935D01*
Y1359195D01*
X7907900Y1351788D01*
X7910863Y1346603D01*
X7912344Y1342900D01*
X7913085Y1342159D01*
X7916047Y1336975D01*
X7917528Y1333271D01*
X7919010Y1330309D01*
X7919750Y1329568D01*
X7921232Y1326605D01*
X7922713Y1324383D01*
Y1322161D01*
X7921232Y1319939D01*
X7919010Y1314755D01*
X7916788Y1310311D01*
X7915306Y1308829D01*
Y1308089D01*
X7909381Y1297720D01*
X7904197Y1288832D01*
X7901975Y1285128D01*
X7900493Y1282166D01*
X7899753Y1280684D01*
X7899012Y1279944D01*
X7896790Y1276240D01*
X7893827Y1271796D01*
X7891605Y1268093D01*
X7890865Y1267352D01*
Y1266612D01*
X7887161Y1259205D01*
X7883458Y1253280D01*
X7881236Y1248836D01*
X7880495Y1248095D01*
Y1247354D01*
X7870867Y1230319D01*
X7861979Y1214024D01*
X7854572Y1200693D01*
X7847906Y1188842D01*
X7841981Y1179213D01*
X7838277Y1171807D01*
X7835315Y1167363D01*
X7834574Y1165881D01*
X7827908Y1154771D01*
X7822723Y1145883D01*
X7819020Y1139217D01*
X7816058Y1134773D01*
X7814576Y1131811D01*
X7813095Y1129589D01*
X7812354Y1128848D01*
X7808651Y1122923D01*
X7696811D01*
X7680516D01*
X7664962D01*
X7651630D01*
X7639779D01*
X7630892Y1123663D01*
X7623485D01*
X7619041D01*
X7618300D01*
X7617560D01*
X7611634D01*
X7607190D01*
X7599043Y1124404D01*
X7593118D01*
X7589414D01*
X7586452D01*
X7585711D01*
X7584970D01*
X7585711Y1125885D01*
Y1127367D01*
X7586452Y1129589D01*
X7587192Y1130329D01*
X7588674Y1132551D01*
X7589414Y1134773D01*
X7590896Y1136255D01*
Y1136995D01*
X7594599Y1142180D01*
X7595340Y1143661D01*
Y1144402D01*
X7598302Y1148846D01*
X7601265Y1154771D01*
X7605709Y1162178D01*
X7610153Y1169585D01*
X7613856Y1176991D01*
X7617560Y1182917D01*
X7619782Y1187361D01*
X7620522Y1188101D01*
Y1188842D01*
X7627929Y1201433D01*
X7633854Y1211062D01*
X7639039Y1219950D01*
X7642742Y1225875D01*
X7645705Y1231060D01*
X7647927Y1234763D01*
X7649408Y1236244D01*
Y1236985D01*
X7651630Y1242170D01*
X7654593Y1247354D01*
X7656815Y1251798D01*
X7657555Y1252539D01*
Y1253280D01*
X7661259Y1259205D01*
X7664962Y1264390D01*
X7666443Y1268093D01*
X7667184Y1269574D01*
X7670887Y1275500D01*
X7673850Y1281425D01*
X7676072Y1285869D01*
X7676813Y1286610D01*
Y1287350D01*
X7681257Y1294016D01*
X7684219Y1299201D01*
X7686441Y1302164D01*
X7687182Y1303645D01*
X7690145Y1308829D01*
X7692367Y1313273D01*
X7693107Y1316236D01*
X7693848Y1316977D01*
X7695329Y1319939D01*
X7696811Y1322161D01*
Y1322902D01*
X7696070Y1325124D01*
X7694589Y1328087D01*
X7693107Y1330309D01*
X7692367Y1331790D01*
X7689404Y1337715D01*
X7687182Y1342900D01*
X7684960Y1346603D01*
X7684219Y1347344D01*
Y1348085D01*
X7681997Y1352529D01*
X7679035Y1356973D01*
X7672369Y1368083D01*
X7669406Y1373267D01*
X7667184Y1377711D01*
X7665703Y1380674D01*
X7664962Y1381415D01*
X7655333Y1398450D01*
X7650149Y1406597D01*
X7646445Y1414004D01*
X7642742Y1419929D01*
X7639779Y1424373D01*
X7638298Y1427336D01*
X7637557Y1428817D01*
X7627929Y1446593D01*
X7623485Y1454000D01*
X7619782Y1460666D01*
X7616078Y1466591D01*
X7613856Y1471035D01*
X7612375Y1473998D01*
X7611634Y1474738D01*
X7607190Y1482145D01*
X7603487Y1488070D01*
X7601265Y1492514D01*
X7599043Y1496217D01*
X7597562Y1499180D01*
X7596080Y1500661D01*
X7595340Y1502143D01*
X7593118Y1507327D01*
X7590896Y1511031D01*
X7589414Y1513993D01*
X7588674Y1514734D01*
X7587192Y1517697D01*
X7586452Y1519178D01*
X7585711Y1519919D01*
Y1520659D01*
X7587192Y1521400D01*
X7587933Y1522141D01*
X7588674D01*
X7590155D01*
X7593118D01*
X7598302D01*
X7602746D01*
X7604228D01*
X7604968D01*
X7608672D01*
X7614597D01*
X7621263D01*
X7627929D01*
X7634595D01*
X7639779D01*
X7643483D01*
X7644964D01*
X7670147Y1521400D01*
D02*
G37*
G36*
X7239821Y1317717D02*
X7240562Y1316977D01*
X7241302Y1316236D01*
X7244265Y1312533D01*
X7245006Y1311792D01*
Y1311051D01*
X7246487Y1308089D01*
X7247968Y1305126D01*
X7249450Y1302904D01*
X7250190Y1302164D01*
X7253153Y1297720D01*
X7255375Y1294016D01*
X7256856Y1291054D01*
X7257597Y1290313D01*
X7259819Y1286610D01*
X7262782Y1281425D01*
X7269447Y1270315D01*
X7272410Y1265871D01*
X7274632Y1261427D01*
X7276113Y1258464D01*
X7276854Y1257724D01*
X7286483Y1239948D01*
X7290927Y1231800D01*
X7295371Y1224394D01*
X7299074Y1218468D01*
X7302037Y1214024D01*
X7303518Y1210321D01*
X7304259Y1209581D01*
X7309443Y1199952D01*
X7314628Y1191805D01*
X7319072Y1183657D01*
X7322775Y1176991D01*
X7325738Y1171066D01*
X7327960Y1166622D01*
X7329441Y1163659D01*
X7330182Y1162919D01*
X7333885Y1156253D01*
X7337589Y1150327D01*
X7339811Y1145883D01*
X7342033Y1142180D01*
X7342773Y1139958D01*
X7343514Y1138477D01*
X7344255Y1136995D01*
X7346477Y1132551D01*
X7347958Y1131811D01*
Y1131070D01*
X7350180Y1128848D01*
X7351661Y1127367D01*
X7352402Y1125885D01*
X7356105Y1121441D01*
X7467945D01*
X7484240D01*
X7499794D01*
X7513126D01*
X7524977D01*
X7534605D01*
X7541271D01*
X7545715D01*
X7547196D01*
X7553122D01*
X7558306D01*
X7566454Y1120701D01*
X7572379D01*
X7576082D01*
X7579045D01*
X7579786D01*
X7580526D01*
Y1119960D01*
X7579786Y1119220D01*
X7579045Y1118479D01*
X7576082Y1114035D01*
X7575342Y1112554D01*
X7574601Y1111813D01*
X7573120Y1108850D01*
X7570898Y1105888D01*
X7569416Y1102925D01*
X7568676Y1102184D01*
X7566454Y1097740D01*
X7564972Y1094037D01*
X7563491Y1091074D01*
X7562750Y1090334D01*
X7559788Y1085149D01*
X7556825Y1079964D01*
X7553862Y1075520D01*
X7552381Y1074039D01*
Y1073298D01*
X7547196Y1064410D01*
X7542753Y1056263D01*
X7540531Y1053300D01*
X7539790Y1051078D01*
X7538309Y1049597D01*
Y1048856D01*
X7532383Y1039228D01*
X7526458Y1028858D01*
X7523495Y1024415D01*
X7522014Y1020711D01*
X7520533Y1018489D01*
X7519792Y1017749D01*
X7511645Y1004417D01*
X7508682Y998491D01*
X7505719Y993307D01*
X7503497Y989603D01*
X7501275Y985900D01*
X7500535Y984419D01*
X7499794Y983678D01*
X7495350Y976271D01*
X7491647Y969605D01*
X7485721Y959236D01*
X7480537Y950348D01*
X7476833Y944423D01*
X7474611Y939979D01*
X7473130Y937016D01*
X7471649Y936275D01*
Y935535D01*
X7468686Y930350D01*
X7466464Y927388D01*
X7465723Y925906D01*
X7464983D01*
X7463501D01*
X7459798Y925166D01*
X7456095D01*
X7451651D01*
X7447207Y924425D01*
X7443504D01*
X7440541D01*
X7439800D01*
X7435356D01*
X7429431Y923684D01*
X7416840D01*
X7402767Y922944D01*
X7387954D01*
X7373881D01*
X7367956D01*
X7362771D01*
X7358327D01*
X7355365D01*
X7353143D01*
X7352402D01*
X7242784D01*
X7239821Y927388D01*
X7237599Y930350D01*
X7236858Y931091D01*
X7236118Y931832D01*
X7233896Y935535D01*
X7233155Y936275D01*
Y937016D01*
X7230933Y940719D01*
X7228711Y945163D01*
X7226489Y948867D01*
X7225748Y949607D01*
Y950348D01*
X7222045Y957014D01*
X7219082Y962939D01*
X7216120Y967383D01*
X7215379Y968124D01*
Y968865D01*
X7210935Y977012D01*
X7205010Y986641D01*
X7199084Y997751D01*
X7193159Y1008861D01*
X7187974Y1018489D01*
X7183530Y1027377D01*
X7181308Y1030340D01*
X7180568Y1032562D01*
X7179086Y1034043D01*
Y1034784D01*
X7170199Y1051078D01*
X7162051Y1065151D01*
X7155385Y1077002D01*
X7150201Y1086630D01*
X7145757Y1094037D01*
X7142794Y1099222D01*
X7141313Y1102925D01*
X7140572Y1103666D01*
X7138350Y1108850D01*
X7136128Y1112554D01*
X7134647Y1115516D01*
X7133906Y1116257D01*
X7132425Y1119220D01*
X7131684Y1121441D01*
X7130943Y1122182D01*
X7131684Y1122923D01*
X7132425Y1125145D01*
X7133165Y1126626D01*
Y1127367D01*
X7135387Y1132551D01*
X7136869Y1134773D01*
Y1135514D01*
X7139831Y1141439D01*
X7142053Y1146624D01*
X7144275Y1150327D01*
X7145016Y1151068D01*
Y1151809D01*
X7147238Y1155512D01*
X7150201Y1160697D01*
X7153904Y1165881D01*
X7156867Y1171807D01*
X7160570Y1177732D01*
X7163533Y1182176D01*
X7165014Y1185139D01*
X7165755Y1186620D01*
X7168717Y1193286D01*
X7171680Y1198471D01*
X7173902Y1202915D01*
X7174642Y1203655D01*
Y1204396D01*
X7177605Y1209581D01*
X7179827Y1213284D01*
X7180568Y1215506D01*
X7181308Y1216246D01*
X7183530Y1219209D01*
X7185012Y1222172D01*
X7186493Y1225134D01*
X7187234Y1226616D01*
X7190196Y1231800D01*
X7192418Y1236244D01*
X7193900Y1239207D01*
X7194640Y1240688D01*
X7197603Y1245132D01*
X7200566Y1251058D01*
X7203528Y1255502D01*
X7204269Y1256242D01*
Y1256983D01*
X7208713Y1264390D01*
X7211676Y1270315D01*
X7213898Y1274018D01*
X7214638Y1274759D01*
Y1275500D01*
X7218342Y1281425D01*
X7221304Y1287350D01*
X7223526Y1291794D01*
X7224267Y1292535D01*
Y1293276D01*
X7227970Y1299201D01*
X7230192Y1302904D01*
X7230933Y1305867D01*
X7231674Y1306607D01*
X7233896Y1310311D01*
X7235377Y1313273D01*
X7236858Y1314755D01*
Y1315495D01*
X7238340Y1316977D01*
X7239080Y1317717D01*
X7239821Y1318458D01*
Y1317717D01*
D02*
G37*
%LPC*%
G36*
X7402026Y1396969D02*
X7401286D01*
X7397582D01*
X7396101D01*
X7395360D01*
X7387213Y1396228D01*
Y1388081D01*
X7387954Y1383637D01*
Y1382155D01*
X7388694Y1379933D01*
Y1378452D01*
X7389435Y1377711D01*
X7391657Y1376971D01*
X7393879Y1376230D01*
X7395360D01*
X7396101D01*
X7399064D01*
X7400545Y1376971D01*
X7402026Y1377711D01*
Y1378452D01*
X7403508Y1381415D01*
X7404989Y1383637D01*
Y1395487D01*
X7402767Y1396228D01*
X7402026Y1396969D01*
D02*
G37*
G36*
X7553122Y1430298D02*
X7552381D01*
X7548678D01*
X7544974D01*
X7542012D01*
X7540531D01*
X7524236D01*
Y1402894D01*
X7524977Y1396969D01*
Y1391784D01*
X7525717Y1387340D01*
X7526458Y1384377D01*
Y1382896D01*
X7527199Y1381415D01*
X7528680Y1379193D01*
X7530902Y1376971D01*
X7536087Y1374749D01*
X7540531Y1374008D01*
X7542012D01*
X7542753D01*
X7547196D01*
X7547937Y1374749D01*
X7548678D01*
X7553122Y1376230D01*
X7553862Y1376971D01*
X7554603Y1377711D01*
X7556825Y1382896D01*
X7557566Y1384377D01*
Y1387340D01*
X7558306Y1389562D01*
Y1396228D01*
X7559047Y1399931D01*
Y1416966D01*
X7558306Y1420670D01*
Y1429558D01*
X7556825D01*
X7555344D01*
X7553122Y1430298D01*
D02*
G37*
G36*
X7496091D02*
X7495350D01*
X7490906D01*
X7486462D01*
X7483499D01*
X7482018D01*
X7463501D01*
Y1393265D01*
X7464242Y1388821D01*
Y1382896D01*
X7464983Y1381415D01*
Y1379933D01*
X7467205Y1375489D01*
X7470167Y1372527D01*
X7472389Y1371045D01*
X7473130Y1370305D01*
X7479055Y1368823D01*
X7484240D01*
X7487203Y1369564D01*
X7488684D01*
X7493128Y1371786D01*
X7496831Y1374008D01*
X7498313Y1376971D01*
X7499053Y1377711D01*
X7499794Y1380674D01*
X7500535Y1383637D01*
X7501275Y1386599D01*
Y1387340D01*
X7502016Y1392525D01*
Y1398450D01*
X7502757Y1402894D01*
Y1428076D01*
X7502016Y1429558D01*
X7500535D01*
X7498313D01*
X7496091Y1430298D01*
D02*
G37*
G36*
X7419802Y1711010D02*
X7407211D01*
X7393879D01*
X7382769D01*
X7376844D01*
X7372400D01*
X7368696D01*
X7365734D01*
X7364252D01*
X7363512D01*
X7348699D01*
X7334626D01*
X7322775D01*
X7313147D01*
X7304999D01*
X7299074D01*
X7295371D01*
X7293889D01*
X7285001D01*
X7277595Y1710269D01*
X7273151D01*
X7269447D01*
X7267225Y1709529D01*
X7266485D01*
X7265744D01*
X7266485Y1706566D01*
X7267225Y1705825D01*
Y1705085D01*
X7269447Y1699900D01*
X7270929Y1697678D01*
Y1696937D01*
X7272410Y1694715D01*
X7273891Y1691012D01*
X7277595Y1684346D01*
X7279076Y1680643D01*
X7280557Y1678421D01*
X7282039Y1676199D01*
Y1675458D01*
X7289445Y1662867D01*
X7292408Y1657682D01*
X7295371Y1652498D01*
X7297593Y1648054D01*
X7299815Y1644350D01*
X7300555Y1642128D01*
X7301296Y1641388D01*
X7309443Y1625834D01*
X7317591Y1611761D01*
X7324257Y1599910D01*
X7329441Y1589541D01*
X7333885Y1581394D01*
X7336848Y1576209D01*
X7339070Y1572506D01*
X7339811Y1571025D01*
X7344995Y1562137D01*
X7349439Y1555471D01*
X7352402Y1549545D01*
X7354624Y1545842D01*
X7356105Y1543620D01*
X7356846Y1542139D01*
X7357587Y1541398D01*
X7358327Y1540657D01*
X7360549Y1539917D01*
X7364993Y1539176D01*
X7369437D01*
X7370918D01*
X7371659D01*
X7374622D01*
X7379066D01*
X7384250Y1538435D01*
X7390916D01*
X7404989D01*
X7419802Y1537695D01*
X7433875D01*
X7440541Y1536954D01*
X7445726D01*
X7450910D01*
X7454613D01*
X7456835D01*
X7457576D01*
X7470167D01*
X7482018D01*
X7492387D01*
X7501275D01*
X7509423D01*
X7516089D01*
X7522755D01*
X7527199D01*
X7531643D01*
X7534605D01*
X7539790D01*
X7542012D01*
X7542753D01*
X7547196D01*
X7550159Y1537695D01*
X7552381Y1538435D01*
X7553862D01*
X7556084Y1539917D01*
Y1541398D01*
X7555344Y1542879D01*
X7554603Y1544361D01*
Y1545101D01*
X7552381Y1548805D01*
X7551640Y1550286D01*
Y1551027D01*
X7547196Y1559915D01*
X7541271Y1569543D01*
X7536087Y1579172D01*
X7530902Y1588800D01*
X7525717Y1597688D01*
X7522014Y1604354D01*
X7519051Y1609539D01*
X7518311Y1610280D01*
Y1611020D01*
X7510904Y1624352D01*
X7504238Y1635462D01*
X7499053Y1644350D01*
X7495350Y1651757D01*
X7491647Y1656942D01*
X7489425Y1660645D01*
X7488684Y1662867D01*
X7487943Y1663608D01*
X7483499Y1671755D01*
X7480537Y1678421D01*
X7476833Y1684346D01*
X7474611Y1688790D01*
X7472389Y1692493D01*
X7471649Y1694715D01*
X7470167Y1696197D01*
Y1696937D01*
X7467945Y1699900D01*
X7466464Y1702863D01*
X7464242Y1705825D01*
X7462761Y1707307D01*
X7462020Y1708047D01*
X7460539Y1708788D01*
X7458317D01*
X7454613Y1709529D01*
X7450170D01*
X7446466Y1710269D01*
X7442763D01*
X7440541D01*
X7439800D01*
X7435356D01*
X7430912D01*
X7419802Y1711010D01*
D02*
G37*
G36*
X7846425Y1309570D02*
X7834574D01*
X7824205D01*
X7814576D01*
X7807170D01*
X7804207D01*
X7801985D01*
X7801244D01*
X7800504D01*
X7790875D01*
X7781246D01*
X7773099D01*
X7764952D01*
X7758286D01*
X7752360D01*
X7741991Y1308829D01*
X7734584D01*
X7728659D01*
X7725697D01*
X7724956D01*
X7718290Y1308089D01*
X7713105D01*
X7709402Y1307348D01*
X7706439D01*
X7704217Y1306607D01*
X7703477D01*
X7702736D01*
X7701995Y1305126D01*
X7700514Y1303645D01*
X7699773Y1302164D01*
X7699033Y1301423D01*
X7696811Y1297720D01*
X7694589Y1294016D01*
X7693107Y1291054D01*
X7692367Y1290313D01*
X7690145Y1286610D01*
X7687182Y1282166D01*
X7681257Y1271796D01*
X7679035Y1266612D01*
X7676813Y1262908D01*
X7675331Y1259946D01*
X7674591Y1259205D01*
X7665703Y1242170D01*
X7661259Y1234022D01*
X7657555Y1227356D01*
X7653852Y1221431D01*
X7650889Y1216246D01*
X7649408Y1213284D01*
X7648667Y1212543D01*
X7643483Y1203655D01*
X7639039Y1195508D01*
X7635336Y1188101D01*
X7631632Y1181435D01*
X7628670Y1176251D01*
X7626448Y1172547D01*
X7624966Y1169585D01*
X7624226Y1168844D01*
X7620522Y1162178D01*
X7617560Y1156253D01*
X7615338Y1152549D01*
X7613856Y1149587D01*
X7612375Y1147365D01*
Y1146624D01*
X7611634Y1145883D01*
X7609412Y1142180D01*
X7608672Y1140699D01*
X7607190Y1137736D01*
Y1136995D01*
X7608672D01*
X7611634Y1136255D01*
X7616078D01*
X7622004D01*
X7627188D01*
X7631632D01*
X7634595D01*
X7636076D01*
X7647186D01*
X7659037D01*
X7670887D01*
X7681997D01*
X7691626D01*
X7699033D01*
X7701995D01*
X7704217D01*
X7704958D01*
X7705699D01*
X7802726D01*
X7813095Y1154031D01*
X7814576Y1156993D01*
X7817539Y1161437D01*
X7823464Y1171807D01*
X7826427Y1176991D01*
X7828649Y1181435D01*
X7830130Y1184398D01*
X7830871Y1185139D01*
X7841240Y1203655D01*
X7846425Y1211803D01*
X7850869Y1219950D01*
X7854572Y1226616D01*
X7857535Y1231800D01*
X7859757Y1234763D01*
X7860497Y1236244D01*
X7866423Y1246614D01*
X7871607Y1255502D01*
X7876051Y1263649D01*
X7879755Y1271056D01*
X7882717Y1276240D01*
X7885680Y1280684D01*
X7886421Y1283647D01*
X7887161Y1284388D01*
X7890865Y1291054D01*
X7893827Y1296238D01*
X7895309Y1299942D01*
X7896790Y1302164D01*
X7897531Y1303645D01*
X7898271Y1304386D01*
Y1305867D01*
X7897531Y1306607D01*
Y1307348D01*
X7896049D01*
X7893087Y1308089D01*
X7887902D01*
X7882717D01*
X7877533Y1308829D01*
X7873089D01*
X7870126D01*
X7868645D01*
X7857535D01*
X7846425Y1309570D01*
D02*
G37*
G36*
X7240562Y1291054D02*
X7239080D01*
X7238340Y1290313D01*
X7236858Y1288832D01*
X7235377Y1286610D01*
X7233896Y1284388D01*
X7233155Y1283647D01*
X7230933Y1279944D01*
X7228711Y1276240D01*
X7227230Y1273278D01*
X7226489Y1272537D01*
X7222045Y1263649D01*
X7218342Y1256242D01*
X7215379Y1251798D01*
X7214638Y1251058D01*
Y1250317D01*
X7212416Y1246614D01*
X7210194Y1242170D01*
X7204269Y1232541D01*
X7202047Y1228838D01*
X7199825Y1225134D01*
X7199084Y1222912D01*
X7198344Y1222172D01*
X7190937Y1209581D01*
X7187974Y1203655D01*
X7185012Y1198471D01*
X7182049Y1193286D01*
X7179827Y1189583D01*
X7179086Y1187361D01*
X7178346Y1186620D01*
X7170199Y1171807D01*
X7166495Y1165141D01*
X7162792Y1158475D01*
X7159089Y1152549D01*
X7156867Y1148105D01*
X7155385Y1145143D01*
X7154645Y1144402D01*
X7152423Y1138477D01*
X7150201Y1134033D01*
X7148719Y1131070D01*
X7147979Y1129589D01*
X7145757Y1125145D01*
X7145016Y1122923D01*
X7144275Y1121441D01*
X7145016Y1119960D01*
X7145757Y1118479D01*
X7146497Y1116998D01*
Y1116257D01*
X7149460Y1110332D01*
X7150941Y1108110D01*
Y1107369D01*
X7151682Y1105147D01*
X7153904Y1102925D01*
X7157607Y1095518D01*
X7162792Y1086630D01*
X7167977Y1077002D01*
X7173161Y1068114D01*
X7177605Y1059966D01*
X7179827Y1057004D01*
X7180568Y1054782D01*
X7182049Y1053300D01*
Y1052560D01*
X7191678Y1035524D01*
X7199825Y1020711D01*
X7207232Y1008120D01*
X7213157Y997751D01*
X7217601Y989603D01*
X7220564Y983678D01*
X7222786Y980715D01*
X7223526Y979234D01*
X7226489Y974049D01*
X7228711Y969605D01*
X7230933Y965902D01*
X7232414Y962939D01*
X7234636Y959236D01*
X7235377Y958495D01*
X7238340Y954792D01*
X7239821Y953311D01*
X7240562Y952570D01*
X7241302D01*
X7242043Y954051D01*
X7244265Y956273D01*
X7246487Y959236D01*
X7247228Y959977D01*
Y960717D01*
X7249450Y964421D01*
X7253153Y969605D01*
X7256116Y975531D01*
X7259819Y981456D01*
X7263522Y987381D01*
X7265744Y992566D01*
X7267966Y995529D01*
X7268707Y997010D01*
X7275373Y1009601D01*
X7282779Y1022193D01*
X7288705Y1034043D01*
X7294630Y1044412D01*
X7299815Y1053300D01*
X7303518Y1059966D01*
X7306481Y1064410D01*
X7307221Y1065151D01*
Y1065892D01*
X7313887Y1077742D01*
X7319813Y1087371D01*
X7324257Y1094778D01*
X7327960Y1100703D01*
X7330923Y1104406D01*
X7332404Y1107369D01*
X7333885Y1108850D01*
Y1109591D01*
X7336848Y1114776D01*
X7337589Y1116998D01*
Y1117738D01*
X7339070Y1119960D01*
X7339811Y1121441D01*
Y1122182D01*
X7339070Y1125145D01*
X7337589Y1128848D01*
X7335367Y1132551D01*
X7334626Y1133292D01*
Y1134033D01*
X7330182Y1141439D01*
X7326479Y1148846D01*
X7324997Y1151809D01*
X7323516Y1154031D01*
X7322035Y1155512D01*
Y1156253D01*
X7316850Y1165881D01*
X7311665Y1174029D01*
X7309443Y1177732D01*
X7307962Y1180695D01*
X7307221Y1182176D01*
X7306481Y1182917D01*
X7301296Y1191805D01*
X7297593Y1197730D01*
X7295371Y1201433D01*
X7294630Y1202915D01*
X7287223Y1215506D01*
X7280557Y1227356D01*
X7274632Y1237726D01*
X7269447Y1246614D01*
X7265004Y1254020D01*
X7261300Y1260686D01*
X7258338Y1266612D01*
X7255375Y1271056D01*
X7253153Y1274759D01*
X7251672Y1278462D01*
X7248709Y1282166D01*
X7247228Y1284388D01*
Y1285128D01*
X7245006Y1288091D01*
X7243524Y1289572D01*
X7242043Y1290313D01*
X7240562Y1291054D01*
D02*
G37*
%LPD*%
D53*
X2746100Y1442500D02*
G03*
X2746100Y1442500I-38100J0D01*
G01*
D54*
X2451010Y4872000D02*
G03*
X2451010Y4872000I-12500J0D01*
G01*
X4466500Y5403500D02*
G03*
X4466500Y5403500I-12500J0D01*
G01*
X2046140Y3229000D02*
G03*
X2046140Y3229000I-12500J0D01*
G01*
X2105100Y4388700D02*
G03*
X2105100Y4388700I-12500J0D01*
G01*
Y5591330D02*
G03*
X2105100Y5591330I-12500J0D01*
G01*
D55*
X7668260Y4803140D02*
G03*
X7668260Y4803140I-88900J0D01*
G01*
Y4434840D02*
G03*
X7668260Y4434840I-88900J0D01*
G01*
Y5163820D02*
G03*
X7668260Y5163820I-88900J0D01*
G01*
X4309600Y4021600D02*
Y4275600D01*
X3700000Y4021600D02*
Y4275600D01*
X3712700Y4453400D02*
X4309600D01*
X3700000Y3831100D02*
X4309600D01*
Y1595120D02*
Y1849120D01*
X3700000Y1595120D02*
Y1849120D01*
X3712700Y2026920D02*
X4309600D01*
X3700000Y1404620D02*
X4309600D01*
D56*
X1112360Y1115580D02*
G03*
X1112360Y1115580I-10000J0D01*
G01*
X3650400Y1060300D02*
G03*
X3650400Y1060300I-10000J0D01*
G01*
X2192500Y4133600D02*
G03*
X2192500Y4133600I-10000J0D01*
G01*
X171400Y3961900D02*
Y4038100D01*
X628600Y3961900D02*
Y4038100D01*
X171400Y3822200D02*
X628600D01*
X171400D02*
X628600D01*
X171400Y4177800D02*
X628600D01*
X2223400Y4532000D02*
Y4612000D01*
X2653400Y4532000D02*
Y4612000D01*
X5084000Y5724000D02*
X7116000D01*
X5084000Y5216000D02*
Y5724000D01*
Y5216000D02*
X7116000D01*
Y5724000D01*
X6862000Y5470000D02*
X7116000D01*
X6862000D02*
Y5724000D01*
X3560000Y4840000D02*
X4840000D01*
X3560000D02*
Y5360000D01*
X4840000D01*
Y4840000D02*
Y5360000D01*
X2171640Y2565000D02*
Y3235000D01*
X2481640Y2565000D02*
Y3235000D01*
X2171640D02*
X2481640D01*
X2171640Y2565000D02*
X2481640D01*
X3222200Y4347000D02*
Y4717000D01*
X3107200Y4797000D02*
X3142200D01*
X3222200Y4717000D01*
X3107200Y4347000D02*
X3222200D01*
X2772200D02*
X2887200D01*
X2772200Y4717000D02*
X2852200Y4797000D01*
X2887200D01*
X2772200Y4347000D02*
Y4717000D01*
X1477600Y4638700D02*
Y4661200D01*
X2027600Y4638700D02*
Y4661200D01*
X1477600Y4381200D02*
Y4403700D01*
X2027600Y4381200D02*
Y4403700D01*
X1477600Y4661200D02*
X2027600D01*
X1477600Y4381200D02*
X2027600D01*
X1033780Y5816600D02*
X1188720D01*
X1033780Y5623560D02*
X1188720D01*
Y5816600D01*
X833120Y5623560D02*
X988060D01*
X833120D02*
Y5816600D01*
X988060D01*
X672900Y1175600D02*
Y1260600D01*
X372900Y1390600D02*
X507900D01*
X372900Y590600D02*
X507900D01*
X672900Y720600D02*
Y805600D01*
X4826000Y5549900D02*
Y5803900D01*
X3556000Y5549900D02*
X4826000D01*
X3556000Y5803900D02*
X4826000D01*
X3556000Y5549900D02*
Y5803900D01*
X4572000Y5549900D02*
Y5803900D01*
X3811000Y273000D02*
Y527000D01*
X4827000D01*
X3811000Y273000D02*
X4827000D01*
Y527000D01*
X4573000Y273000D02*
Y527000D01*
X3812000Y1154000D02*
X4828000D01*
X3812000Y646000D02*
Y1154000D01*
Y646000D02*
X4828000D01*
Y1154000D01*
X4574000Y900000D02*
X4828000D01*
X4574000D02*
Y1154000D01*
X1226820Y2373000D02*
Y2627000D01*
X972820Y2373000D02*
Y2627000D01*
X1734820D01*
Y2373000D02*
Y2627000D01*
X972820Y2373000D02*
X1734820D01*
X171400Y1761900D02*
Y1838100D01*
X628600Y1761900D02*
Y1838100D01*
X171400Y1622200D02*
X628600D01*
X171400D02*
X628600D01*
X171400Y1977800D02*
X628600D01*
X1226820Y3173000D02*
Y3427000D01*
X972820Y3173000D02*
Y3427000D01*
X1734820D01*
Y3173000D02*
Y3427000D01*
X972820Y3173000D02*
X1734820D01*
X6862000Y530000D02*
Y784000D01*
Y530000D02*
X7116000D01*
Y276000D02*
Y784000D01*
X5084000Y276000D02*
X7116000D01*
X5084000D02*
Y784000D01*
X7116000D01*
X1476800Y4880400D02*
Y5250400D01*
X1556800Y5330400D02*
X1591800D01*
X1476800Y5250400D02*
X1556800Y5330400D01*
X1476800Y4880400D02*
X1591800D01*
X1811800D02*
X1926800D01*
X1846800Y5330400D02*
X1926800Y5250400D01*
X1811800Y5330400D02*
X1846800D01*
X1926800Y4880400D02*
Y5250400D01*
X1477600Y5583830D02*
X2027600D01*
X1477600Y5863830D02*
X2027600D01*
Y5583830D02*
Y5606330D01*
X1477600Y5583830D02*
Y5606330D01*
X2027600Y5841330D02*
Y5863830D01*
X1477600Y5841330D02*
Y5863830D01*
X1926800Y3737400D02*
Y4107400D01*
X1811800Y4187400D02*
X1846800D01*
X1926800Y4107400D01*
X1811800Y3737400D02*
X1926800D01*
X1476800D02*
X1591800D01*
X1476800Y4107400D02*
X1556800Y4187400D01*
X1591800D01*
X1476800Y3737400D02*
Y4107400D01*
X3720435Y2131725D02*
Y2061747D01*
X3755423D01*
X3767086Y2073410D01*
Y2085073D01*
X3755423Y2096736D01*
X3720435D01*
X3755423D01*
X3767086Y2108399D01*
Y2120062D01*
X3755423Y2131725D01*
X3720435D01*
X3790412D02*
Y2073410D01*
X3802075Y2061747D01*
X3825401D01*
X3837064Y2073410D01*
Y2131725D01*
X3860390D02*
X3907041D01*
X3883715D01*
Y2061747D01*
X3930367Y2131725D02*
X3977019D01*
X3953693D01*
Y2061747D01*
X4035333Y2131725D02*
X4012007D01*
X4000345Y2120062D01*
Y2073410D01*
X4012007Y2061747D01*
X4035333D01*
X4046996Y2073410D01*
Y2120062D01*
X4035333Y2131725D01*
X4070322Y2061747D02*
Y2131725D01*
X4116974Y2061747D01*
Y2131725D01*
X2843987Y2706484D02*
Y2766465D01*
X2873977D01*
X2883974Y2756468D01*
Y2736475D01*
X2873977Y2726478D01*
X2843987D01*
X2863981D02*
X2883974Y2706484D01*
X2903968Y2766465D02*
X2943955Y2706484D01*
Y2766465D02*
X2903968Y2706484D01*
X281620Y1575877D02*
Y1505900D01*
X316609D01*
X328272Y1517563D01*
Y1529226D01*
X316609Y1540889D01*
X281620D01*
X316609D01*
X328272Y1552552D01*
Y1564215D01*
X316609Y1575877D01*
X281620D01*
X386586D02*
X363260D01*
X351597Y1564215D01*
Y1517563D01*
X363260Y1505900D01*
X386586D01*
X398249Y1517563D01*
Y1564215D01*
X386586Y1575877D01*
X456564D02*
X433238D01*
X421575Y1564215D01*
Y1517563D01*
X433238Y1505900D01*
X456564D01*
X468227Y1517563D01*
Y1564215D01*
X456564Y1575877D01*
X491552D02*
X538204D01*
X514878D01*
Y1505900D01*
X3233100Y5962457D02*
Y5892480D01*
X3268089D01*
X3279752Y5904143D01*
Y5915806D01*
X3268089Y5927469D01*
X3233100D01*
X3268089D01*
X3279752Y5939132D01*
Y5950795D01*
X3268089Y5962457D01*
X3233100D01*
X3303077Y5892480D02*
Y5939132D01*
X3326403Y5962457D01*
X3349729Y5939132D01*
Y5892480D01*
Y5927469D01*
X3303077D01*
X3373055Y5962457D02*
X3419707D01*
X3396381D01*
Y5892480D01*
X2843987Y3112741D02*
X2883974D01*
X2863981D01*
Y3052760D01*
X2903968Y3112741D02*
X2943955Y3052760D01*
Y3112741D02*
X2903968Y3052760D01*
X4282120Y3029900D02*
Y3099877D01*
X4317109D01*
X4328772Y3088215D01*
Y3064889D01*
X4317109Y3053226D01*
X4282120D01*
X4398749Y3088215D02*
X4387086Y3099877D01*
X4363760D01*
X4352097Y3088215D01*
Y3041563D01*
X4363760Y3029900D01*
X4387086D01*
X4398749Y3041563D01*
X4468727Y3099877D02*
X4445401Y3088215D01*
X4422075Y3064889D01*
Y3041563D01*
X4433738Y3029900D01*
X4457064D01*
X4468727Y3041563D01*
Y3053226D01*
X4457064Y3064889D01*
X4422075D01*
X4492940Y1686240D02*
Y1756217D01*
X4527929D01*
X4539592Y1744555D01*
Y1721229D01*
X4527929Y1709566D01*
X4492940D01*
X4609569Y1744555D02*
X4597906Y1756217D01*
X4574580D01*
X4562917Y1744555D01*
Y1697903D01*
X4574580Y1686240D01*
X4597906D01*
X4609569Y1697903D01*
X4632895Y1744555D02*
X4644558Y1756217D01*
X4667884D01*
X4679547Y1744555D01*
Y1697903D01*
X4667884Y1686240D01*
X4644558D01*
X4632895Y1697903D01*
Y1744555D01*
X3939940Y3635007D02*
Y3565030D01*
X3986591D01*
X4056569Y3635007D02*
X4009917D01*
Y3565030D01*
X4056569D01*
X4009917Y3600018D02*
X4033243D01*
X4079895Y3635007D02*
Y3565030D01*
X4114884D01*
X4126546Y3576693D01*
Y3623344D01*
X4114884Y3635007D01*
X4079895D01*
X4282120Y2359340D02*
Y2429317D01*
X4317109D01*
X4328772Y2417655D01*
Y2394329D01*
X4317109Y2382666D01*
X4282120D01*
X4398749Y2417655D02*
X4387086Y2429317D01*
X4363760D01*
X4352097Y2417655D01*
Y2371003D01*
X4363760Y2359340D01*
X4387086D01*
X4398749Y2371003D01*
X4457064Y2359340D02*
Y2429317D01*
X4422075Y2394329D01*
X4468727D01*
X4485320Y4157660D02*
Y4227637D01*
X4520309D01*
X4531972Y4215975D01*
Y4192649D01*
X4520309Y4180986D01*
X4485320D01*
X4601949Y4215975D02*
X4590286Y4227637D01*
X4566960D01*
X4555297Y4215975D01*
Y4169323D01*
X4566960Y4157660D01*
X4590286D01*
X4601949Y4169323D01*
X4625275Y4157660D02*
X4648601D01*
X4636938D01*
Y4227637D01*
X4625275Y4215975D01*
X4282120Y2702240D02*
Y2772217D01*
X4317109D01*
X4328772Y2760555D01*
Y2737229D01*
X4317109Y2725566D01*
X4282120D01*
X4398749Y2760555D02*
X4387086Y2772217D01*
X4363760D01*
X4352097Y2760555D01*
Y2713903D01*
X4363760Y2702240D01*
X4387086D01*
X4398749Y2713903D01*
X4468727Y2772217D02*
X4422075D01*
Y2737229D01*
X4445401Y2748892D01*
X4457064D01*
X4468727Y2737229D01*
Y2713903D01*
X4457064Y2702240D01*
X4433738D01*
X4422075Y2713903D01*
X4282120Y3370260D02*
Y3440237D01*
X4317109D01*
X4328772Y3428575D01*
Y3405249D01*
X4317109Y3393586D01*
X4282120D01*
X4398749Y3428575D02*
X4387086Y3440237D01*
X4363760D01*
X4352097Y3428575D01*
Y3381923D01*
X4363760Y3370260D01*
X4387086D01*
X4398749Y3381923D01*
X4422075Y3440237D02*
X4468727D01*
Y3428575D01*
X4422075Y3381923D01*
Y3370260D01*
X268920Y3705540D02*
Y3775517D01*
X303909D01*
X315572Y3763855D01*
Y3740529D01*
X303909Y3728866D01*
X268920D01*
X292246D02*
X315572Y3705540D01*
X385549Y3775517D02*
X338897D01*
Y3705540D01*
X385549D01*
X338897Y3740529D02*
X362223D01*
X455527Y3763855D02*
X443864Y3775517D01*
X420538D01*
X408875Y3763855D01*
Y3752192D01*
X420538Y3740529D01*
X443864D01*
X455527Y3728866D01*
Y3717203D01*
X443864Y3705540D01*
X420538D01*
X408875Y3717203D01*
X525504Y3775517D02*
X478852D01*
Y3705540D01*
X525504D01*
X478852Y3740529D02*
X502178D01*
X548830Y3775517D02*
X595482D01*
X572156D01*
Y3705540D01*
X320652Y4468937D02*
X274000D01*
Y4433949D01*
X297326Y4445612D01*
X308989D01*
X320652Y4433949D01*
Y4410623D01*
X308989Y4398960D01*
X285663D01*
X274000Y4410623D01*
X343977Y4468937D02*
Y4422286D01*
X367303Y4398960D01*
X390629Y4422286D01*
Y4468937D01*
X413955Y4433949D02*
X460607D01*
X483932Y4468937D02*
Y4398960D01*
X518921D01*
X530584Y4410623D01*
Y4457275D01*
X518921Y4468937D01*
X483932D01*
X600562Y4457275D02*
X588899Y4468937D01*
X565573D01*
X553910Y4457275D01*
Y4410623D01*
X565573Y4398960D01*
X588899D01*
X600562Y4410623D01*
X821883Y3156329D02*
Y3133003D01*
X833545Y3121340D01*
X880197D01*
X891860Y3133003D01*
Y3156329D01*
X880197Y3167992D01*
X833545D01*
X821883Y3156329D01*
X891860Y3191317D02*
X821883D01*
X891860Y3237969D01*
X821883D01*
X3735675Y4600605D02*
Y4530627D01*
X3770663D01*
X3782326Y4542290D01*
Y4553953D01*
X3770663Y4565616D01*
X3735675D01*
X3770663D01*
X3782326Y4577279D01*
Y4588942D01*
X3770663Y4600605D01*
X3735675D01*
X3805652D02*
Y4542290D01*
X3817315Y4530627D01*
X3840641D01*
X3852304Y4542290D01*
Y4600605D01*
X3875630D02*
X3922281D01*
X3898955D01*
Y4530627D01*
X3945607Y4600605D02*
X3992259D01*
X3968933D01*
Y4530627D01*
X4050573Y4600605D02*
X4027247D01*
X4015585Y4588942D01*
Y4542290D01*
X4027247Y4530627D01*
X4050573D01*
X4062236Y4542290D01*
Y4588942D01*
X4050573Y4600605D01*
X4085562Y4530627D02*
Y4600605D01*
X4132214Y4530627D01*
Y4600605D01*
X827720Y2993011D02*
X862709Y3028000D01*
X897697Y2993011D01*
X862709Y2958023D02*
Y2911371D01*
Y2888045D02*
Y2841393D01*
Y2818068D02*
Y2771416D01*
Y2748090D02*
Y2701438D01*
X897697Y2643124D02*
Y2666450D01*
X886035Y2678112D01*
X839383D01*
X827720Y2666450D01*
Y2643124D01*
X839383Y2631461D01*
X886035D01*
X897697Y2643124D01*
Y2561483D02*
Y2608135D01*
X862709D01*
Y2584809D01*
Y2608135D01*
X827720D01*
X897697Y2491506D02*
Y2538157D01*
X862709D01*
Y2514832D01*
Y2538157D01*
X827720D01*
X6951659Y5956620D02*
X7021637D01*
Y5921631D01*
X7009974Y5909968D01*
X6986648D01*
X6974985Y5921631D01*
Y5956620D01*
X7021637Y5886643D02*
X6951659D01*
Y5851654D01*
X6963322Y5839991D01*
X6974985D01*
X6986648Y5851654D01*
Y5886643D01*
Y5851654D01*
X6998311Y5839991D01*
X7009974D01*
X7021637Y5851654D01*
Y5886643D01*
Y5770013D02*
X7009974Y5793339D01*
X6986648Y5816665D01*
X6963322D01*
X6951659Y5805002D01*
Y5781676D01*
X6963322Y5770013D01*
X6974985D01*
X6986648Y5781676D01*
Y5816665D01*
X4734989Y228920D02*
Y182268D01*
Y205594D01*
X4665011D01*
X4734989Y158943D02*
X4665011Y112291D01*
X4734989D02*
X4665011Y158943D01*
X4723326Y88965D02*
X4734989Y77302D01*
Y53976D01*
X4723326Y42313D01*
X4676674D01*
X4665011Y53976D01*
Y77302D01*
X4676674Y88965D01*
X4723326D01*
X3961975Y228920D02*
X3973637Y217257D01*
Y193931D01*
X3961975Y182268D01*
X3950312D01*
X3938649Y193931D01*
Y205594D01*
Y193931D01*
X3926986Y182268D01*
X3915323D01*
X3903660Y193931D01*
Y217257D01*
X3915323Y228920D01*
X3973637Y158943D02*
X3926986D01*
X3903660Y135617D01*
X3926986Y112291D01*
X3973637D01*
X3961975Y88965D02*
X3973637Y77302D01*
Y53976D01*
X3961975Y42313D01*
X3950312D01*
X3938649Y53976D01*
Y65639D01*
Y53976D01*
X3926986Y42313D01*
X3915323D01*
X3903660Y53976D01*
Y77302D01*
X3915323Y88965D01*
X4221055Y1317648D02*
X4232717Y1329311D01*
Y1352637D01*
X4221055Y1364300D01*
X4209392D01*
X4197729Y1352637D01*
Y1329311D01*
X4186066Y1317648D01*
X4174403D01*
X4162740Y1329311D01*
Y1352637D01*
X4174403Y1364300D01*
X4221055Y1247671D02*
X4232717Y1259334D01*
Y1282660D01*
X4221055Y1294323D01*
X4174403D01*
X4162740Y1282660D01*
Y1259334D01*
X4174403Y1247671D01*
X4232717Y1224345D02*
X4162740D01*
Y1177693D01*
X5684011Y1016320D02*
X5753988D01*
Y981331D01*
X5742326Y969668D01*
X5719000D01*
X5707337Y981331D01*
Y1016320D01*
X5684011Y946343D02*
X5730663D01*
X5753988Y923017D01*
X5730663Y899691D01*
X5684011D01*
X5719000D01*
Y946343D01*
X5684011Y876365D02*
Y853039D01*
Y864702D01*
X5753988D01*
X5742326Y876365D01*
X6192011Y1016320D02*
X6261988D01*
Y981331D01*
X6250326Y969668D01*
X6227000D01*
X6215337Y981331D01*
Y1016320D01*
X6192011Y946342D02*
X6238663D01*
X6261988Y923016D01*
X6238663Y899691D01*
X6192011D01*
X6227000D01*
Y946342D01*
X6261988Y829713D02*
Y876365D01*
X6227000D01*
X6238663Y853039D01*
Y841376D01*
X6227000Y829713D01*
X6203674D01*
X6192011Y841376D01*
Y864702D01*
X6203674Y876365D01*
X6954009Y1016320D02*
X7023987D01*
Y981331D01*
X7012324Y969668D01*
X6988998D01*
X6977335Y981331D01*
Y1016320D01*
X7023987Y946343D02*
X6954009D01*
Y911354D01*
X6965672Y899691D01*
X7012324D01*
X7023987Y911354D01*
Y946343D01*
X7012324Y876365D02*
X7023987Y864702D01*
Y841376D01*
X7012324Y829713D01*
X7000661D01*
X6988998Y841376D01*
Y853039D01*
Y841376D01*
X6977335Y829713D01*
X6965672D01*
X6954009Y841376D01*
Y864702D01*
X6965672Y876365D01*
X5234515Y1016320D02*
X5246177Y1004657D01*
Y981331D01*
X5234515Y969668D01*
X5222852D01*
X5211189Y981331D01*
Y992994D01*
Y981331D01*
X5199526Y969668D01*
X5187863D01*
X5176200Y981331D01*
Y1004657D01*
X5187863Y1016320D01*
X5246177Y946343D02*
X5199526D01*
X5176200Y923017D01*
X5199526Y899691D01*
X5246177D01*
X5234515Y876365D02*
X5246177Y864702D01*
Y841376D01*
X5234515Y829713D01*
X5222852D01*
X5211189Y841376D01*
Y853039D01*
Y841376D01*
X5199526Y829713D01*
X5187863D01*
X5176200Y841376D01*
Y864702D01*
X5187863Y876365D01*
X5430011Y1016320D02*
X5499989D01*
Y981331D01*
X5488326Y969668D01*
X5465000D01*
X5453337Y981331D01*
Y1016320D01*
X5499989Y946342D02*
X5430011D01*
Y911354D01*
X5441674Y899691D01*
X5453337D01*
X5465000Y911354D01*
Y946342D01*
Y911354D01*
X5476663Y899691D01*
X5488326D01*
X5499989Y911354D01*
Y946342D01*
X5488326Y876365D02*
X5499989Y864702D01*
Y841376D01*
X5488326Y829713D01*
X5441674D01*
X5430011Y841376D01*
Y864702D01*
X5441674Y876365D01*
X5488326D01*
X6700010Y1016320D02*
X6769988D01*
Y981331D01*
X6758325Y969668D01*
X6734999D01*
X6723336Y981331D01*
Y1016320D01*
X6769988Y946342D02*
X6700010D01*
Y911354D01*
X6711673Y899691D01*
X6758325D01*
X6769988Y911354D01*
Y946342D01*
X6700010Y876365D02*
Y853039D01*
Y864702D01*
X6769988D01*
X6758325Y876365D01*
X6446010Y1016320D02*
X6515988D01*
Y981331D01*
X6504325Y969668D01*
X6480999D01*
X6469336Y981331D01*
Y1016320D01*
X6446010Y946343D02*
X6492662D01*
X6515988Y923017D01*
X6492662Y899691D01*
X6446010D01*
X6480999D01*
Y946343D01*
X6515988Y876365D02*
Y829713D01*
X6504325D01*
X6457673Y876365D01*
X6446010D01*
X5938011Y1016320D02*
X6007988D01*
Y981331D01*
X5996326Y969668D01*
X5973000D01*
X5961337Y981331D01*
Y1016320D01*
X5938011Y946343D02*
X5984663D01*
X6007988Y923017D01*
X5984663Y899691D01*
X5938011D01*
X5973000D01*
Y946343D01*
X5938011Y829713D02*
Y876365D01*
X5984663Y829713D01*
X5996326D01*
X6007988Y841376D01*
Y864702D01*
X5996326Y876365D01*
X5742326Y194968D02*
X5753988Y206631D01*
Y229957D01*
X5742326Y241620D01*
X5695674D01*
X5684011Y229957D01*
Y206631D01*
X5695674Y194968D01*
X5719000D01*
Y218294D01*
X5684011Y171643D02*
X5753988D01*
X5684011Y124991D01*
X5753988D01*
Y101665D02*
X5684011D01*
Y66676D01*
X5695674Y55013D01*
X5742326D01*
X5753988Y66676D01*
Y101665D01*
X6700010Y241620D02*
X6769988D01*
Y206631D01*
X6758325Y194968D01*
X6734999D01*
X6723336Y206631D01*
Y241620D01*
X6769988Y171642D02*
X6700010D01*
Y136654D01*
X6711673Y124991D01*
X6758325D01*
X6769988Y136654D01*
Y171642D01*
X6758325Y101665D02*
X6769988Y90002D01*
Y66676D01*
X6758325Y55013D01*
X6711673D01*
X6700010Y66676D01*
Y90002D01*
X6711673Y101665D01*
X6758325D01*
X6192011Y241620D02*
X6261988D01*
Y206631D01*
X6250326Y194968D01*
X6227000D01*
X6215337Y206631D01*
Y241620D01*
X6192011Y171642D02*
X6238663D01*
X6261988Y148316D01*
X6238663Y124991D01*
X6192011D01*
X6227000D01*
Y171642D01*
X6192011Y66676D02*
X6261988D01*
X6227000Y101665D01*
Y55013D01*
X6954010Y241620D02*
X7023987D01*
Y206631D01*
X7012325Y194968D01*
X6988999D01*
X6977336Y206631D01*
Y241620D01*
X7023987Y171642D02*
X6954010D01*
Y136654D01*
X6965673Y124991D01*
X7012325D01*
X7023987Y136654D01*
Y171642D01*
X6954010Y66676D02*
X7023987D01*
X6988999Y101665D01*
Y55013D01*
X5488326Y194968D02*
X5499989Y206631D01*
Y229957D01*
X5488326Y241620D01*
X5441674D01*
X5430011Y229957D01*
Y206631D01*
X5441674Y194968D01*
X5465000D01*
Y218294D01*
X5430011Y171643D02*
X5499989D01*
X5430011Y124991D01*
X5499989D01*
Y101665D02*
X5430011D01*
Y66676D01*
X5441674Y55013D01*
X5488326D01*
X5499989Y66676D01*
Y101665D01*
X6446010Y241620D02*
X6515988D01*
Y206631D01*
X6504325Y194968D01*
X6480999D01*
X6469336Y206631D01*
Y241620D01*
X6446010Y171643D02*
X6492662D01*
X6515988Y148317D01*
X6492662Y124991D01*
X6446010D01*
X6480999D01*
Y171643D01*
X6515988Y55013D02*
X6504325Y78339D01*
X6480999Y101665D01*
X6457673D01*
X6446010Y90002D01*
Y66676D01*
X6457673Y55013D01*
X6469336D01*
X6480999Y66676D01*
Y101665D01*
X5234326Y241620D02*
X5245989Y229957D01*
Y206631D01*
X5234326Y194968D01*
X5222663D01*
X5211000Y206631D01*
Y218294D01*
Y206631D01*
X5199337Y194968D01*
X5187674D01*
X5176011Y206631D01*
Y229957D01*
X5187674Y241620D01*
X5245989Y171642D02*
X5199337D01*
X5176011Y148316D01*
X5199337Y124991D01*
X5245989D01*
X5234326Y101665D02*
X5245989Y90002D01*
Y66676D01*
X5234326Y55013D01*
X5222663D01*
X5211000Y66676D01*
Y78339D01*
Y66676D01*
X5199337Y55013D01*
X5187674D01*
X5176011Y66676D01*
Y90002D01*
X5187674Y101665D01*
X5996326Y194968D02*
X6007988Y206631D01*
Y229957D01*
X5996326Y241620D01*
X5949674D01*
X5938011Y229957D01*
Y206631D01*
X5949674Y194968D01*
X5973000D01*
Y218294D01*
X5938011Y171643D02*
X6007988D01*
X5938011Y124991D01*
X6007988D01*
Y101665D02*
X5938011D01*
Y66676D01*
X5949674Y55013D01*
X5996326D01*
X6007988Y66676D01*
Y101665D01*
X5238557Y5876948D02*
Y5923600D01*
X5203569D01*
X5215232Y5900274D01*
Y5888611D01*
X5203569Y5876948D01*
X5180243D01*
X5168580Y5888611D01*
Y5911937D01*
X5180243Y5923600D01*
X5238557Y5853623D02*
X5191906D01*
X5168580Y5830297D01*
X5191906Y5806971D01*
X5238557D01*
X5230544Y5080785D02*
X5242206Y5092448D01*
Y5115774D01*
X5230544Y5127437D01*
X5183892D01*
X5172229Y5115774D01*
Y5092448D01*
X5183892Y5080785D01*
X5207218D01*
Y5104111D01*
X5172229Y5057460D02*
X5242206D01*
X5172229Y5010808D01*
X5242206D01*
Y4987482D02*
X5172229D01*
Y4952493D01*
X5183892Y4940830D01*
X5230544D01*
X5242206Y4952493D01*
Y4987482D01*
X6962369Y5127437D02*
X7032347D01*
Y5092448D01*
X7020684Y5080785D01*
X6997358D01*
X6985695Y5092448D01*
Y5127437D01*
X7032347Y5057460D02*
X6962369D01*
Y5022471D01*
X6974032Y5010808D01*
X6985695D01*
X6997358Y5022471D01*
Y5057460D01*
Y5022471D01*
X7009021Y5010808D01*
X7020684D01*
X7032347Y5022471D01*
Y5057460D01*
Y4987482D02*
Y4940830D01*
X7020684D01*
X6974032Y4987482D01*
X6962369D01*
X3962326Y1317648D02*
X3973989Y1329311D01*
Y1352637D01*
X3962326Y1364300D01*
X3950663D01*
X3939000Y1352637D01*
Y1329311D01*
X3927337Y1317648D01*
X3915674D01*
X3904011Y1329311D01*
Y1352637D01*
X3915674Y1364300D01*
X3973989Y1294322D02*
X3904011D01*
Y1259334D01*
X3915674Y1247671D01*
X3962326D01*
X3973989Y1259334D01*
Y1294322D01*
X3904011Y1224345D02*
X3950663D01*
X3973989Y1201019D01*
X3950663Y1177693D01*
X3904011D01*
X3939000D01*
Y1224345D01*
X4724326Y1364300D02*
X4735989Y1352637D01*
Y1329311D01*
X4724326Y1317648D01*
X4712663D01*
X4701000Y1329311D01*
Y1340974D01*
Y1329311D01*
X4689337Y1317648D01*
X4677674D01*
X4666011Y1329311D01*
Y1352637D01*
X4677674Y1364300D01*
X4735989Y1294322D02*
X4689337D01*
X4666011Y1270996D01*
X4689337Y1247671D01*
X4735989D01*
X4724326Y1224345D02*
X4735989Y1212682D01*
Y1189356D01*
X4724326Y1177693D01*
X4712663D01*
X4701000Y1189356D01*
Y1201019D01*
Y1189356D01*
X4689337Y1177693D01*
X4677674D01*
X4666011Y1189356D01*
Y1212682D01*
X4677674Y1224345D01*
X4503450Y1317648D02*
X4515113Y1329311D01*
Y1352637D01*
X4503450Y1364300D01*
X4456799D01*
X4445136Y1352637D01*
Y1329311D01*
X4456799Y1317648D01*
X4480124D01*
Y1340974D01*
X4445136Y1294323D02*
X4515113D01*
X4445136Y1247671D01*
X4515113D01*
Y1224345D02*
X4445136D01*
Y1189356D01*
X4456799Y1177693D01*
X4503450D01*
X4515113Y1189356D01*
Y1224345D01*
X4978424Y563281D02*
X4920109D01*
X4908446Y551618D01*
Y528292D01*
X4920109Y516629D01*
X4978424D01*
X4908446Y493303D02*
X4955098D01*
X4978424Y469977D01*
X4955098Y446651D01*
X4908446D01*
X4943435D01*
Y493303D01*
X4908446Y423326D02*
X4978424D01*
Y388337D01*
X4966761Y376674D01*
X4943435D01*
X4931772Y388337D01*
Y423326D01*
Y400000D02*
X4908446Y376674D01*
X4978424Y353348D02*
Y306696D01*
Y330022D01*
X4908446D01*
X4966761Y283371D02*
X4978424Y271708D01*
Y248382D01*
X4966761Y236719D01*
X4920109D01*
X4908446Y248382D01*
Y271708D01*
X4920109Y283371D01*
X4966761D01*
X4986044Y987472D02*
Y964146D01*
Y975809D01*
X4916066D01*
Y987472D01*
Y964146D01*
Y882506D02*
Y929157D01*
X4962718Y882506D01*
X4974381D01*
X4986044Y894169D01*
Y917494D01*
X4974381Y929157D01*
Y812528D02*
X4986044Y824191D01*
Y847517D01*
X4974381Y859180D01*
X4927729D01*
X4916066Y847517D01*
Y824191D01*
X4927729Y812528D01*
X4984557Y5778820D02*
X4926243D01*
X4914580Y5767157D01*
Y5743831D01*
X4926243Y5732168D01*
X4984557D01*
X4972895Y5662191D02*
X4984557Y5673854D01*
Y5697180D01*
X4972895Y5708843D01*
X4961232D01*
X4949569Y5697180D01*
Y5673854D01*
X4937906Y5662191D01*
X4926243D01*
X4914580Y5673854D01*
Y5697180D01*
X4926243Y5708843D01*
X4984557Y5638865D02*
X4914580D01*
Y5603876D01*
X4926243Y5592213D01*
X4937906D01*
X4949569Y5603876D01*
Y5638865D01*
Y5603876D01*
X4961232Y5592213D01*
X4972895D01*
X4984557Y5603876D01*
Y5638865D01*
X4989637Y5198768D02*
Y5222094D01*
Y5210431D01*
X4931323D01*
X4919660Y5222094D01*
Y5233757D01*
X4931323Y5245420D01*
X4989637Y5175443D02*
Y5128791D01*
Y5152117D01*
X4919660D01*
Y5105465D02*
X4966312D01*
X4989637Y5082139D01*
X4966312Y5058813D01*
X4919660D01*
X4954649D01*
Y5105465D01*
X4977975Y4988836D02*
X4989637Y5000499D01*
Y5023825D01*
X4977975Y5035488D01*
X4931323D01*
X4919660Y5023825D01*
Y5000499D01*
X4931323Y4988836D01*
X4954649D01*
Y5012162D01*
X4215326Y182268D02*
X4226989Y193931D01*
Y217257D01*
X4215326Y228920D01*
X4168674D01*
X4157011Y217257D01*
Y193931D01*
X4168674Y182268D01*
X4192000D01*
Y205594D01*
X4157011Y158943D02*
X4226989D01*
X4157011Y112291D01*
X4226989D01*
Y88965D02*
X4157011D01*
Y53976D01*
X4168674Y42313D01*
X4215326D01*
X4226989Y53976D01*
Y88965D01*
X4411011Y228920D02*
X4480989D01*
Y193931D01*
X4469326Y182268D01*
X4446000D01*
X4434337Y193931D01*
Y228920D01*
Y205594D02*
X4411011Y182268D01*
X4480989Y158943D02*
X4411011Y112291D01*
X4480989D02*
X4411011Y158943D01*
X4469326Y88965D02*
X4480989Y77302D01*
Y53976D01*
X4469326Y42313D01*
X4422674D01*
X4411011Y53976D01*
Y77302D01*
X4422674Y88965D01*
X4469326D01*
X3683684Y5946925D02*
X3695346Y5958588D01*
Y5981914D01*
X3683684Y5993577D01*
X3637032D01*
X3625369Y5981914D01*
Y5958588D01*
X3637032Y5946925D01*
X3660358D01*
Y5970251D01*
X3625369Y5923600D02*
X3695346D01*
X3625369Y5876948D01*
X3695346D01*
Y5853622D02*
X3625369D01*
Y5818633D01*
X3637032Y5806970D01*
X3683684D01*
X3695346Y5818633D01*
Y5853622D01*
X3890960Y5969320D02*
X3960937D01*
X3890960Y5922668D01*
X3960937D01*
X3949275Y5852691D02*
X3960937Y5864354D01*
Y5887680D01*
X3949275Y5899343D01*
X3902623D01*
X3890960Y5887680D01*
Y5864354D01*
X3902623Y5852691D01*
X4735637Y5912508D02*
Y5959160D01*
X4700649D01*
X4712312Y5935834D01*
Y5924171D01*
X4700649Y5912508D01*
X4677323D01*
X4665660Y5924171D01*
Y5947497D01*
X4677323Y5959160D01*
X4735637Y5889183D02*
X4688986D01*
X4665660Y5865857D01*
X4688986Y5842531D01*
X4735637D01*
X4476557Y5959160D02*
X4406580D01*
Y5924171D01*
X4418243Y5912508D01*
X4464895D01*
X4476557Y5924171D01*
Y5959160D01*
X4441569Y5889183D02*
Y5842531D01*
X4464895Y5865857D02*
X4418243D01*
X4235257Y5961700D02*
X4165280D01*
Y5926711D01*
X4176943Y5915048D01*
X4223595D01*
X4235257Y5926711D01*
Y5961700D01*
X4200269Y5891723D02*
Y5845071D01*
X5427963Y5127437D02*
X5497941D01*
Y5092448D01*
X5486278Y5080785D01*
X5462952D01*
X5451289Y5092448D01*
Y5127437D01*
X5486278Y5010808D02*
X5497941Y5022471D01*
Y5045797D01*
X5486278Y5057460D01*
X5439626D01*
X5427963Y5045797D01*
Y5022471D01*
X5439626Y5010808D01*
X5427963Y4987482D02*
Y4964156D01*
Y4975819D01*
X5497941D01*
X5486278Y4987482D01*
X5423576Y5956620D02*
X5493554D01*
Y5921631D01*
X5481891Y5909968D01*
X5458565D01*
X5446902Y5921631D01*
Y5956620D01*
X5481891Y5839991D02*
X5493554Y5851654D01*
Y5874980D01*
X5481891Y5886643D01*
X5435239D01*
X5423576Y5874980D01*
Y5851654D01*
X5435239Y5839991D01*
X5481891Y5816665D02*
X5493554Y5805002D01*
Y5781676D01*
X5481891Y5770013D01*
X5435239D01*
X5423576Y5781676D01*
Y5805002D01*
X5435239Y5816665D01*
X5481891D01*
X5683698Y5127437D02*
X5753675D01*
Y5092448D01*
X5742012Y5080785D01*
X5718686D01*
X5707023Y5092448D01*
Y5127437D01*
X5742012Y5010808D02*
X5753675Y5022471D01*
Y5045797D01*
X5742012Y5057460D01*
X5695360D01*
X5683698Y5045797D01*
Y5022471D01*
X5695360Y5010808D01*
X5753675Y4940830D02*
Y4987482D01*
X5718686D01*
X5730349Y4964156D01*
Y4952493D01*
X5718686Y4940830D01*
X5695360D01*
X5683698Y4952493D01*
Y4975819D01*
X5695360Y4987482D01*
X5674923Y5956620D02*
X5744901D01*
Y5921631D01*
X5733238Y5909968D01*
X5709912D01*
X5698249Y5921631D01*
Y5956620D01*
X5733238Y5839991D02*
X5744901Y5851654D01*
Y5874980D01*
X5733238Y5886643D01*
X5686586D01*
X5674923Y5874980D01*
Y5851654D01*
X5686586Y5839991D01*
X5674923Y5781676D02*
X5744901D01*
X5709912Y5816665D01*
Y5770013D01*
X5939432Y5127437D02*
X6009409D01*
Y5092448D01*
X5997746Y5080785D01*
X5974421D01*
X5962758Y5092448D01*
Y5127437D01*
X5997746Y5010808D02*
X6009409Y5022471D01*
Y5045797D01*
X5997746Y5057460D01*
X5951095D01*
X5939432Y5045797D01*
Y5022471D01*
X5951095Y5010808D01*
X6009409Y4987482D02*
Y4940830D01*
X5997746D01*
X5951095Y4987482D01*
X5939432D01*
X5926271Y5956620D02*
X5996248D01*
Y5921631D01*
X5984585Y5909968D01*
X5961259D01*
X5949596Y5921631D01*
Y5956620D01*
X5984585Y5839991D02*
X5996248Y5851654D01*
Y5874980D01*
X5984585Y5886643D01*
X5937934D01*
X5926271Y5874980D01*
Y5851654D01*
X5937934Y5839991D01*
X5996248Y5770013D02*
X5984585Y5793339D01*
X5961259Y5816665D01*
X5937934D01*
X5926271Y5805002D01*
Y5781676D01*
X5937934Y5770013D01*
X5949596D01*
X5961259Y5781676D01*
Y5816665D01*
X6195166Y5127437D02*
X6265144D01*
Y5092448D01*
X6253481Y5080785D01*
X6230155D01*
X6218492Y5092448D01*
Y5127437D01*
X6265144Y5057460D02*
X6195166D01*
Y5022471D01*
X6206829Y5010808D01*
X6218492D01*
X6230155Y5022471D01*
Y5057460D01*
Y5022471D01*
X6241818Y5010808D01*
X6253481D01*
X6265144Y5022471D01*
Y5057460D01*
X6195166Y4987482D02*
Y4964156D01*
Y4975819D01*
X6265144D01*
X6253481Y4987482D01*
X6177618Y5956620D02*
X6247595D01*
Y5921631D01*
X6235932Y5909968D01*
X6212607D01*
X6200944Y5921631D01*
Y5956620D01*
X6247595Y5886643D02*
X6177618D01*
Y5851654D01*
X6189281Y5839991D01*
X6200944D01*
X6212607Y5851654D01*
Y5886643D01*
Y5851654D01*
X6224269Y5839991D01*
X6235932D01*
X6247595Y5851654D01*
Y5886643D01*
X6235932Y5816665D02*
X6247595Y5805002D01*
Y5781676D01*
X6235932Y5770013D01*
X6189281D01*
X6177618Y5781676D01*
Y5805002D01*
X6189281Y5816665D01*
X6235932D01*
X6428965Y5956620D02*
X6498943D01*
Y5921631D01*
X6487280Y5909968D01*
X6463954D01*
X6452291Y5921631D01*
Y5956620D01*
X6498943Y5886643D02*
X6428965D01*
Y5851654D01*
X6440628Y5839991D01*
X6452291D01*
X6463954Y5851654D01*
Y5886643D01*
Y5851654D01*
X6475617Y5839991D01*
X6487280D01*
X6498943Y5851654D01*
Y5886643D01*
X6428965Y5770013D02*
Y5816665D01*
X6475617Y5770013D01*
X6487280D01*
X6498943Y5781676D01*
Y5805002D01*
X6487280Y5816665D01*
X6450900Y5127437D02*
X6520878D01*
Y5092448D01*
X6509215Y5080785D01*
X6485889D01*
X6474226Y5092448D01*
Y5127437D01*
X6520878Y5057460D02*
X6450900D01*
Y5022471D01*
X6462563Y5010808D01*
X6474226D01*
X6485889Y5022471D01*
Y5057460D01*
Y5022471D01*
X6497552Y5010808D01*
X6509215D01*
X6520878Y5022471D01*
Y5057460D01*
X6509215Y4987482D02*
X6520878Y4975819D01*
Y4952493D01*
X6509215Y4940830D01*
X6497552D01*
X6485889Y4952493D01*
Y4964156D01*
Y4952493D01*
X6474226Y4940830D01*
X6462563D01*
X6450900Y4952493D01*
Y4975819D01*
X6462563Y4987482D01*
X6706635Y5127437D02*
X6776612D01*
Y5092448D01*
X6764949Y5080785D01*
X6741624D01*
X6729961Y5092448D01*
Y5127437D01*
X6776612Y5057460D02*
X6706635D01*
Y5022471D01*
X6718298Y5010808D01*
X6729961D01*
X6741624Y5022471D01*
Y5057460D01*
Y5022471D01*
X6753286Y5010808D01*
X6764949D01*
X6776612Y5022471D01*
Y5057460D01*
Y4940830D02*
Y4987482D01*
X6741624D01*
X6753286Y4964156D01*
Y4952493D01*
X6741624Y4940830D01*
X6718298D01*
X6706635Y4952493D01*
Y4975819D01*
X6718298Y4987482D01*
X6680312Y5956620D02*
X6750290D01*
Y5921631D01*
X6738627Y5909968D01*
X6715301D01*
X6703638Y5921631D01*
Y5956620D01*
X6750290Y5886643D02*
X6680312D01*
Y5851654D01*
X6691975Y5839991D01*
X6703638D01*
X6715301Y5851654D01*
Y5886643D01*
Y5851654D01*
X6726964Y5839991D01*
X6738627D01*
X6750290Y5851654D01*
Y5886643D01*
X6680312Y5781676D02*
X6750290D01*
X6715301Y5816665D01*
Y5770013D01*
D57*
X4708220Y2034800D02*
X4835220D01*
X4708220D02*
Y2339600D01*
Y3965200D02*
X4835220D01*
X4708220Y3660400D02*
Y3965200D01*
X6511620Y3952500D02*
X7934020D01*
Y2050040D02*
Y3952500D01*
X7349820Y3947420D02*
X7349820Y2047500D01*
X6501460D02*
X7349820D01*
Y2050040D02*
X7934020D01*
X2954000Y5216200D02*
X3157200D01*
X2242800D02*
X2446000D01*
X3192760Y5267000D02*
Y5983280D01*
X2212320D02*
X3192760D01*
X2212320Y5267000D02*
Y5983280D01*
X101600Y2252300D02*
Y3547700D01*
X102000Y2252300D02*
X762000D01*
Y3547700D01*
X101600D02*
X762000D01*
D58*
X7349820Y2047500D02*
Y2050040D01*
D59*
X2710000Y865000D02*
Y1313963D01*
X2638962Y1385000D02*
X2710000Y1313963D01*
X1690000Y1385000D02*
X2638962D01*
X1690000Y865000D02*
Y1385000D01*
Y865000D02*
X2710000D01*
X143880Y5385000D02*
X1190360D01*
Y5235140D02*
Y5385000D01*
X143880Y4546800D02*
X677280D01*
X1190360Y4556960D02*
Y4783020D01*
Y4546800D02*
Y4556960D01*
X1137020Y4546800D02*
X1190360D01*
D60*
X2973960Y2984636D02*
Y3162436D01*
X3342260D02*
X3367660Y3137036D01*
X3342260Y2984636D02*
X3367660Y3010036D01*
Y3137036D01*
X2973960Y3162436D02*
X3113660D01*
X3215260D02*
X3342260D01*
X2973960Y2984636D02*
X3113660D01*
X3215260D02*
X3342260D01*
X4229100Y2305610D02*
Y2483410D01*
X3835400Y2331010D02*
X3860800Y2305610D01*
X3835400Y2458010D02*
X3860800Y2483410D01*
X3835400Y2331010D02*
Y2458010D01*
X4089400Y2305610D02*
X4229100D01*
X3860800D02*
X3987800D01*
X4089400Y2483410D02*
X4229100D01*
X3860800D02*
X3987800D01*
X4229100Y2645123D02*
Y2822923D01*
X3835400Y2670523D02*
X3860800Y2645123D01*
X3835400Y2797523D02*
X3860800Y2822923D01*
X3835400Y2670523D02*
Y2797523D01*
X4089400Y2645123D02*
X4229100D01*
X3860800D02*
X3987800D01*
X4089400Y2822923D02*
X4229100D01*
X3860800D02*
X3987800D01*
X4229100Y2984636D02*
Y3162436D01*
X3835400Y3010036D02*
X3860800Y2984636D01*
X3835400Y3137036D02*
X3860800Y3162436D01*
X3835400Y3010036D02*
Y3137036D01*
X4089400Y2984636D02*
X4229100D01*
X3860800D02*
X3987800D01*
X4089400Y3162436D02*
X4229100D01*
X3860800D02*
X3987800D01*
X4229100Y3324149D02*
Y3501949D01*
X3835400Y3349549D02*
X3860800Y3324149D01*
X3835400Y3476549D02*
X3860800Y3501949D01*
X3835400Y3349549D02*
Y3476549D01*
X4089400Y3324149D02*
X4229100D01*
X3860800D02*
X3987800D01*
X4089400Y3501949D02*
X4229100D01*
X3860800D02*
X3987800D01*
X2598500Y3551100D02*
Y3728900D01*
X2204800Y3576500D02*
X2230200Y3551100D01*
X2204800Y3703500D02*
X2230200Y3728900D01*
X2204800Y3576500D02*
Y3703500D01*
X2458800Y3551100D02*
X2598500D01*
X2230200D02*
X2357200D01*
X2458800Y3728900D02*
X2598500D01*
X2230200D02*
X2357200D01*
X2598420Y2067560D02*
Y2245360D01*
X2204720Y2092960D02*
X2230120Y2067560D01*
X2204720Y2219960D02*
X2230120Y2245360D01*
X2204720Y2092960D02*
Y2219960D01*
X2458720Y2067560D02*
X2598420D01*
X2230120D02*
X2357120D01*
X2458720Y2245360D02*
X2598420D01*
X2230120D02*
X2357120D01*
X1251210Y1177580D02*
X1413710D01*
X1251210Y864580D02*
X1413710D01*
X3138900Y415800D02*
Y815800D01*
X3642900Y415800D02*
Y815800D01*
X2328000Y4195100D02*
X2498000D01*
X2328000Y3882100D02*
X2498000D01*
X3225640Y2645123D02*
X3352640D01*
X2984340D02*
X3124040D01*
X3225640Y2822923D02*
X3352640D01*
X2984340D02*
X3124040D01*
X3378040Y2670523D02*
Y2797523D01*
X3352640Y2645123D02*
X3378040Y2670523D01*
X3352640Y2822923D02*
X3378040Y2797523D01*
X2984340Y2645123D02*
Y2822923D01*
D61*
X2158400Y2325220D02*
Y2463800D01*
X1908940D02*
X2158400D01*
X1908940Y2325220D02*
Y2463800D01*
Y2325220D02*
X2158400D01*
X3436620Y3818210D02*
Y3956790D01*
X3187160D02*
X3436620D01*
X3187160Y3818210D02*
Y3956790D01*
Y3818210D02*
X3436620D01*
X3187160Y3563620D02*
Y3702200D01*
Y3563620D02*
X3436620D01*
Y3702200D01*
X3187160D02*
X3436620D01*
X3187160Y4043210D02*
Y4181790D01*
Y4043210D02*
X3436620D01*
Y4181790D01*
X3187160D02*
X3436620D01*
X2528945Y3343760D02*
Y3482340D01*
X2279485D02*
X2528945D01*
X2279485Y3343760D02*
Y3482340D01*
Y3343760D02*
X2528945D01*
X2158370D02*
Y3482340D01*
X1908910D02*
X2158370D01*
X1908910Y3343760D02*
Y3482340D01*
Y3343760D02*
X2158370D01*
X2662460Y1842620D02*
Y1981200D01*
X2413000D02*
X2662460D01*
X2413000Y1842620D02*
Y1981200D01*
Y1842620D02*
X2662460D01*
X3426460Y1072590D02*
Y1211170D01*
X3177000D02*
X3426460D01*
X3177000Y1072590D02*
Y1211170D01*
Y1072590D02*
X3426460D01*
X2773140Y686865D02*
Y825445D01*
Y686865D02*
X3022600D01*
Y825445D01*
X2773140D02*
X3022600D01*
X2773140Y1072590D02*
Y1211170D01*
Y1072590D02*
X3022600D01*
Y1211170D01*
X2773140D02*
X3022600D01*
X969740Y299720D02*
Y438300D01*
Y299720D02*
X1219200D01*
Y438300D01*
X969740D02*
X1219200D01*
X2301240Y299720D02*
Y438300D01*
X2051780D02*
X2301240D01*
X2051780Y299720D02*
Y438300D01*
Y299720D02*
X2301240D01*
X1691100D02*
Y438300D01*
Y299720D02*
X1940560D01*
Y438300D01*
X1691100D02*
X1940560D01*
X1341740Y299720D02*
Y438300D01*
Y299720D02*
X1591200D01*
Y438300D01*
X1341740D02*
X1591200D01*
X3023680Y298300D02*
Y436880D01*
X2774220D02*
X3023680D01*
X2774220Y298300D02*
Y436880D01*
Y298300D02*
X3023680D01*
X2662460Y299720D02*
Y438300D01*
X2413000D02*
X2662460D01*
X2413000Y299720D02*
Y438300D01*
Y299720D02*
X2662460D01*
X2773680Y1456895D02*
Y1595475D01*
Y1456895D02*
X3023140D01*
Y1595475D01*
X2773680D02*
X3023140D01*
Y1842620D02*
Y1981200D01*
X2773680D02*
X3023140D01*
X2773680Y1842620D02*
Y1981200D01*
Y1842620D02*
X3023140D01*
X3177000Y1842619D02*
X3426460D01*
X3177000D02*
Y1981199D01*
X3426460D01*
Y1842619D02*
Y1981199D01*
X3177000Y1596185D02*
X3426460D01*
Y1457605D02*
Y1596185D01*
X3177000Y1457605D02*
X3426460D01*
X3177000D02*
Y1596185D01*
X1330420Y1756790D02*
X1579880D01*
Y1618210D02*
Y1756790D01*
X1330420Y1618210D02*
X1579880D01*
X1330420D02*
Y1756790D01*
X3046080Y3482340D02*
X3295540D01*
Y3343760D02*
Y3482340D01*
X3046080Y3343760D02*
X3295540D01*
X3046080D02*
Y3482340D01*
X3466560Y3483760D02*
X3716020D01*
Y3345180D02*
Y3483760D01*
X3466560Y3345180D02*
X3716020D01*
X3466560D02*
Y3483760D01*
X2650060Y3482340D02*
X2899520D01*
Y3343760D02*
Y3482340D01*
X2650060Y3343760D02*
X2899520D01*
X2650060D02*
Y3482340D01*
X3469100Y2463800D02*
X3718560D01*
Y2325220D02*
Y2463800D01*
X3469100Y2325220D02*
X3718560D01*
X3469100D02*
Y2463800D01*
X3456400Y2803313D02*
X3705860D01*
Y2664733D02*
Y2803313D01*
X3456400Y2664733D02*
X3705860D01*
X3456400D02*
Y2803313D01*
Y3142826D02*
X3705860D01*
Y3004246D02*
Y3142826D01*
X3456400Y3004246D02*
X3705860D01*
X3456400D02*
Y3142826D01*
X1330420Y1982620D02*
X1579880D01*
Y1844040D02*
Y1982620D01*
X1330420Y1844040D02*
X1579880D01*
X1330420D02*
Y1982620D01*
X2051780D02*
X2301240D01*
Y1844040D02*
Y1982620D01*
X2051780Y1844040D02*
X2301240D01*
X2051780D02*
Y1982620D01*
X1691100D02*
X1940560D01*
Y1844040D02*
Y1982620D01*
X1691100Y1844040D02*
X1940560D01*
X1691100D02*
Y1982620D01*
X6929120Y4306420D02*
X7178580D01*
X6929120D02*
Y4445000D01*
X7178580D01*
Y4306420D02*
Y4445000D01*
X6554040Y4446420D02*
X6803500D01*
Y4307840D02*
Y4446420D01*
X6554040Y4307840D02*
X6803500D01*
X6554040D02*
Y4446420D01*
X969740Y1982620D02*
X1219200D01*
Y1844040D02*
Y1982620D01*
X969740Y1844040D02*
X1219200D01*
X969740D02*
Y1982620D01*
Y1756790D02*
X1219200D01*
Y1618210D02*
Y1756790D01*
X969740Y1618210D02*
X1219200D01*
X969740D02*
Y1756790D01*
X3056460Y2463800D02*
X3305920D01*
Y2325220D02*
Y2463800D01*
X3056460Y2325220D02*
X3305920D01*
X3056460D02*
Y2463800D01*
X2650060D02*
X2899520D01*
Y2325220D02*
Y2463800D01*
X2650060Y2325220D02*
X2899520D01*
X2650060D02*
Y2463800D01*
X2760980Y3818210D02*
X3010440D01*
X2760980D02*
Y3956790D01*
X3010440D01*
Y3818210D02*
Y3956790D01*
X2762980Y4181790D02*
X3012440D01*
Y4043210D02*
Y4181790D01*
X2762980Y4043210D02*
X3012440D01*
X2762980D02*
Y4181790D01*
X969740Y3956790D02*
X1219200D01*
Y3818210D02*
Y3956790D01*
X969740Y3818210D02*
X1219200D01*
X969740D02*
Y3956790D01*
X2279485Y2325220D02*
X2528945D01*
X2279485D02*
Y2463800D01*
X2528945D01*
Y2325220D02*
Y2463800D01*
X969740Y4181790D02*
X1219200D01*
Y4043210D02*
Y4181790D01*
X969740Y4043210D02*
X1219200D01*
X969740D02*
Y4181790D01*
D62*
X988060Y5788660D02*
X1033780D01*
X988060Y5648960D02*
X1033780D01*
X143880Y4546800D02*
Y5385000D01*
D63*
X1568907Y3110361D02*
X1548914D01*
X1558910D01*
Y3060377D01*
X1548914Y3050380D01*
X1538917D01*
X1528920Y3060377D01*
X1588901Y3110361D02*
Y3050380D01*
X1618891D01*
X1628888Y3060377D01*
Y3100364D01*
X1618891Y3110361D01*
X1588901D01*
X1688868Y3100364D02*
X1678871Y3110361D01*
X1658878D01*
X1648881Y3100364D01*
Y3060377D01*
X1658878Y3050380D01*
X1678871D01*
X1688868Y3060377D01*
X1041240Y2729361D02*
X1061234D01*
X1051237D01*
Y2669380D01*
X1041240D01*
X1061234D01*
X1091224D02*
Y2729361D01*
X1131211Y2669380D01*
Y2729361D01*
X1313020Y3105281D02*
X1333014D01*
X1323017D01*
Y3045300D01*
X1313020D01*
X1333014D01*
X1363004D02*
Y3105281D01*
X1402991Y3045300D01*
Y3105281D01*
X1337767Y2729361D02*
X1297780D01*
Y2699370D01*
X1317774Y2709367D01*
X1327770D01*
X1337767Y2699370D01*
Y2679377D01*
X1327770Y2669380D01*
X1307777D01*
X1297780Y2679377D01*
X1357761Y2729361D02*
Y2689374D01*
X1377754Y2669380D01*
X1397748Y2689374D01*
Y2729361D01*
X1023460Y3105281D02*
Y3055297D01*
X1033457Y3045300D01*
X1053450D01*
X1063447Y3055297D01*
Y3105281D01*
X1123428Y3095284D02*
X1113431Y3105281D01*
X1093437D01*
X1083441Y3095284D01*
Y3085287D01*
X1093437Y3075290D01*
X1113431D01*
X1123428Y3065294D01*
Y3055297D01*
X1113431Y3045300D01*
X1093437D01*
X1083441Y3055297D01*
X1143421Y3105281D02*
Y3045300D01*
X1173411D01*
X1183408Y3055297D01*
Y3065294D01*
X1173411Y3075290D01*
X1143421D01*
X1173411D01*
X1183408Y3085287D01*
Y3095284D01*
X1173411Y3105281D01*
X1143421D01*
X1551780Y2729361D02*
Y2669380D01*
X1581770D01*
X1591767Y2679377D01*
Y2689374D01*
X1581770Y2699370D01*
X1551780D01*
X1581770D01*
X1591767Y2709367D01*
Y2719364D01*
X1581770Y2729361D01*
X1551780D01*
X1611761Y2669380D02*
Y2709367D01*
X1631754Y2729361D01*
X1651748Y2709367D01*
Y2669380D01*
Y2699370D01*
X1611761D01*
X1671741Y2729361D02*
X1711728D01*
X1691735D01*
Y2669380D01*
X7756943Y4451223D02*
X7746947Y4461220D01*
X7726953D01*
X7716956Y4451223D01*
Y4411236D01*
X7726953Y4401239D01*
X7746947D01*
X7756943Y4411236D01*
Y4431230D01*
X7736950D01*
X7776937Y4401239D02*
Y4461220D01*
X7816924Y4401239D01*
Y4461220D01*
X7836918D02*
Y4401239D01*
X7866908D01*
X7876904Y4411236D01*
Y4451223D01*
X7866908Y4461220D01*
X7836918D01*
X7716956Y4811794D02*
X7726953Y4821791D01*
X7746947D01*
X7756943Y4811794D01*
Y4801797D01*
X7746947Y4791800D01*
X7736950D01*
X7746947D01*
X7756943Y4781804D01*
Y4771807D01*
X7746947Y4761810D01*
X7726953D01*
X7716956Y4771807D01*
X7776937Y4821791D02*
Y4781804D01*
X7796931Y4761810D01*
X7816924Y4781804D01*
Y4821791D01*
X7836918Y4811794D02*
X7846914Y4821791D01*
X7866908D01*
X7876904Y4811794D01*
Y4801797D01*
X7866908Y4791800D01*
X7856911D01*
X7866908D01*
X7876904Y4781804D01*
Y4771807D01*
X7866908Y4761810D01*
X7846914D01*
X7836918Y4771807D01*
X7756943Y5183001D02*
X7716956D01*
Y5153010D01*
X7736950Y5163007D01*
X7746947D01*
X7756943Y5153010D01*
Y5133017D01*
X7746947Y5123020D01*
X7726953D01*
X7716956Y5133017D01*
X7776937Y5183001D02*
Y5143014D01*
X7796931Y5123020D01*
X7816924Y5143014D01*
Y5183001D01*
X3148983Y4879309D02*
X3200400D01*
X3174691Y4853600D02*
Y4905018D01*
X1815483Y5446409D02*
X1866900D01*
X1841191Y5420700D02*
Y5472118D01*
X1853583Y4267509D02*
X1905000D01*
X1879291Y4241800D02*
Y4293217D01*
X2774986Y866630D02*
Y926610D01*
X2804976D01*
X2814973Y916613D01*
Y896620D01*
X2804976Y886623D01*
X2774986D01*
X2794980D02*
X2814973Y866630D01*
X2874954D02*
X2834967D01*
X2874954Y906617D01*
Y916613D01*
X2864957Y926610D01*
X2844963D01*
X2834967Y916613D01*
X2934934Y926610D02*
X2894947D01*
Y896620D01*
X2914941Y906617D01*
X2924938D01*
X2934934Y896620D01*
Y876626D01*
X2924938Y866630D01*
X2904944D01*
X2894947Y876626D01*
X2774986Y1257790D02*
Y1317770D01*
X2804976D01*
X2814973Y1307773D01*
Y1287780D01*
X2804976Y1277783D01*
X2774986D01*
X2794980D02*
X2814973Y1257790D01*
X2874954D02*
X2834967D01*
X2874954Y1297777D01*
Y1307773D01*
X2864957Y1317770D01*
X2844963D01*
X2834967Y1307773D01*
X2924938Y1257790D02*
Y1317770D01*
X2894947Y1287780D01*
X2934934D01*
X3465866Y3767310D02*
Y3827290D01*
X3495856D01*
X3505853Y3817293D01*
Y3797300D01*
X3495856Y3787303D01*
X3465866D01*
X3485860D02*
X3505853Y3767310D01*
X3565834D02*
X3525847D01*
X3565834Y3807297D01*
Y3817293D01*
X3555837Y3827290D01*
X3535843D01*
X3525847Y3817293D01*
X3585827D02*
X3595824Y3827290D01*
X3615818D01*
X3625814Y3817293D01*
Y3777306D01*
X3615818Y3767310D01*
X3595824D01*
X3585827Y3777306D01*
Y3817293D01*
X3465785Y4092430D02*
Y4152410D01*
X3495775D01*
X3505771Y4142413D01*
Y4122420D01*
X3495775Y4112423D01*
X3465785D01*
X3485778D02*
X3505771Y4092430D01*
X3525765D02*
X3545759D01*
X3535762D01*
Y4152410D01*
X3525765Y4142413D01*
X3575749D02*
X3585745Y4152410D01*
X3605739D01*
X3615736Y4142413D01*
Y4132417D01*
X3605739Y4122420D01*
X3615736Y4112423D01*
Y4102426D01*
X3605739Y4092430D01*
X3585745D01*
X3575749Y4102426D01*
Y4112423D01*
X3585745Y4122420D01*
X3575749Y4132417D01*
Y4142413D01*
X3585745Y4122420D02*
X3605739D01*
X3180080Y1631170D02*
Y1691150D01*
X3210070D01*
X3220067Y1681153D01*
Y1661160D01*
X3210070Y1651163D01*
X3180080D01*
X3200074D02*
X3220067Y1631170D01*
X3240061D02*
X3260054D01*
X3250057D01*
Y1691150D01*
X3240061Y1681153D01*
X3330031Y1691150D02*
X3310038Y1681153D01*
X3290044Y1661160D01*
Y1641166D01*
X3300041Y1631170D01*
X3320035D01*
X3330031Y1641166D01*
Y1651163D01*
X3320035Y1661160D01*
X3290044D01*
X3186385Y2019790D02*
Y2079770D01*
X3216375D01*
X3226371Y2069773D01*
Y2049780D01*
X3216375Y2039783D01*
X3186385D01*
X3206378D02*
X3226371Y2019790D01*
X3246365D02*
X3266359D01*
X3256362D01*
Y2079770D01*
X3246365Y2069773D01*
X3336336Y2079770D02*
X3296349D01*
Y2049780D01*
X3316342Y2059777D01*
X3326339D01*
X3336336Y2049780D01*
Y2029786D01*
X3326339Y2019790D01*
X3306345D01*
X3296349Y2029786D01*
X1333500Y2024844D02*
Y2084824D01*
X1363490D01*
X1373487Y2074827D01*
Y2054834D01*
X1363490Y2044837D01*
X1333500D01*
X1353494D02*
X1373487Y2024844D01*
X1393481D02*
X1413474D01*
X1403477D01*
Y2084824D01*
X1393481Y2074827D01*
X1443464D02*
X1453461Y2084824D01*
X1473455D01*
X1483451Y2074827D01*
Y2064831D01*
X1473455Y2054834D01*
X1463458D01*
X1473455D01*
X1483451Y2044837D01*
Y2034840D01*
X1473455Y2024844D01*
X1453461D01*
X1443464Y2034840D01*
X1328485Y1519640D02*
Y1579620D01*
X1358475D01*
X1368471Y1569623D01*
Y1549630D01*
X1358475Y1539633D01*
X1328485D01*
X1348478D02*
X1368471Y1519640D01*
X1388465D02*
X1408459D01*
X1398462D01*
Y1579620D01*
X1388465Y1569623D01*
X1478436Y1519640D02*
X1438449D01*
X1478436Y1559627D01*
Y1569623D01*
X1468439Y1579620D01*
X1448445D01*
X1438449Y1569623D01*
X970151Y2024844D02*
Y2084824D01*
X1000142D01*
X1010138Y2074827D01*
Y2054834D01*
X1000142Y2044837D01*
X970151D01*
X990145D02*
X1010138Y2024844D01*
X1030132D02*
X1050126D01*
X1040129D01*
Y2084824D01*
X1030132Y2074827D01*
X1080116Y2024844D02*
X1100109D01*
X1090112D01*
Y2084824D01*
X1080116Y2074827D01*
X968965Y1514330D02*
Y1574310D01*
X998955D01*
X1008951Y1564313D01*
Y1544320D01*
X998955Y1534323D01*
X968965D01*
X988958D02*
X1008951Y1514330D01*
X1028945D02*
X1048939D01*
X1038942D01*
Y1574310D01*
X1028945Y1564313D01*
X1078929D02*
X1088925Y1574310D01*
X1108919D01*
X1118916Y1564313D01*
Y1524326D01*
X1108919Y1514330D01*
X1088925D01*
X1078929Y1524326D01*
Y1564313D01*
X973636Y3713970D02*
Y3773950D01*
X1003627D01*
X1013623Y3763953D01*
Y3743960D01*
X1003627Y3733963D01*
X973636D01*
X993630D02*
X1013623Y3713970D01*
X1033617Y3723966D02*
X1043614Y3713970D01*
X1063607D01*
X1073604Y3723966D01*
Y3763953D01*
X1063607Y3773950D01*
X1043614D01*
X1033617Y3763953D01*
Y3753957D01*
X1043614Y3743960D01*
X1073604D01*
X3051356Y4092430D02*
Y4152410D01*
X3081347D01*
X3091343Y4142413D01*
Y4122420D01*
X3081347Y4112423D01*
X3051356D01*
X3071350D02*
X3091343Y4092430D01*
X3111337Y4142413D02*
X3121334Y4152410D01*
X3141327D01*
X3151324Y4142413D01*
Y4132417D01*
X3141327Y4122420D01*
X3151324Y4112423D01*
Y4102426D01*
X3141327Y4092430D01*
X3121334D01*
X3111337Y4102426D01*
Y4112423D01*
X3121334Y4122420D01*
X3111337Y4132417D01*
Y4142413D01*
X3121334Y4122420D02*
X3141327D01*
X3056436Y3851130D02*
Y3911110D01*
X3086427D01*
X3096423Y3901113D01*
Y3881120D01*
X3086427Y3871123D01*
X3056436D01*
X3076430D02*
X3096423Y3851130D01*
X3116417Y3911110D02*
X3156404D01*
Y3901113D01*
X3116417Y3861126D01*
Y3851130D01*
X2653140Y2502390D02*
Y2562370D01*
X2683130D01*
X2693127Y2552373D01*
Y2532380D01*
X2683130Y2522383D01*
X2653140D01*
X2673133D02*
X2693127Y2502390D01*
X2753107Y2562370D02*
X2733114Y2552373D01*
X2713120Y2532380D01*
Y2512386D01*
X2723117Y2502390D01*
X2743111D01*
X2753107Y2512386D01*
Y2522383D01*
X2743111Y2532380D01*
X2713120D01*
X3058160Y2502390D02*
Y2562370D01*
X3088150D01*
X3098147Y2552373D01*
Y2532380D01*
X3088150Y2522383D01*
X3058160D01*
X3078154D02*
X3098147Y2502390D01*
X3158128Y2562370D02*
X3118141D01*
Y2532380D01*
X3138134Y2542377D01*
X3148131D01*
X3158128Y2532380D01*
Y2512386D01*
X3148131Y2502390D01*
X3128137D01*
X3118141Y2512386D01*
X3048000Y3520930D02*
Y3580910D01*
X3077990D01*
X3087987Y3570913D01*
Y3550920D01*
X3077990Y3540923D01*
X3048000D01*
X3067994D02*
X3087987Y3520930D01*
X3137971D02*
Y3580910D01*
X3107981Y3550920D01*
X3147968D01*
X2651760Y3520930D02*
Y3580910D01*
X2681750D01*
X2691747Y3570913D01*
Y3550920D01*
X2681750Y3540923D01*
X2651760D01*
X2671753D02*
X2691747Y3520930D01*
X2711740Y3570913D02*
X2721737Y3580910D01*
X2741731D01*
X2751727Y3570913D01*
Y3560917D01*
X2741731Y3550920D01*
X2731734D01*
X2741731D01*
X2751727Y3540923D01*
Y3530926D01*
X2741731Y3520930D01*
X2721737D01*
X2711740Y3530926D01*
X2776220Y1631170D02*
Y1691150D01*
X2806210D01*
X2816207Y1681153D01*
Y1661160D01*
X2806210Y1651163D01*
X2776220D01*
X2796214D02*
X2816207Y1631170D01*
X2876188D02*
X2836201D01*
X2876188Y1671157D01*
Y1681153D01*
X2866191Y1691150D01*
X2846197D01*
X2836201Y1681153D01*
X2776220Y2024844D02*
Y2084824D01*
X2806210D01*
X2816207Y2074827D01*
Y2054834D01*
X2806210Y2044837D01*
X2776220D01*
X2796214D02*
X2816207Y2024844D01*
X2836201D02*
X2856194D01*
X2846197D01*
Y2084824D01*
X2836201Y2074827D01*
X2205373Y4927110D02*
Y4867130D01*
X2245360D01*
X2265354D02*
X2285347D01*
X2275350D01*
Y4927110D01*
X2265354Y4917113D01*
X2455527Y530533D02*
X2445530Y540530D01*
X2425537D01*
X2415540Y530533D01*
Y490546D01*
X2425537Y480550D01*
X2445530D01*
X2455527Y490546D01*
X2515508Y480550D02*
X2475521D01*
X2515508Y520537D01*
Y530533D01*
X2505511Y540530D01*
X2485517D01*
X2475521Y530533D01*
X2535501D02*
X2545498Y540530D01*
X2565491D01*
X2575488Y530533D01*
Y520537D01*
X2565491Y510540D01*
X2555495D01*
X2565491D01*
X2575488Y500543D01*
Y490546D01*
X2565491Y480550D01*
X2545498D01*
X2535501Y490546D01*
X2816207Y530533D02*
X2806210Y540530D01*
X2786217D01*
X2776220Y530533D01*
Y490546D01*
X2786217Y480550D01*
X2806210D01*
X2816207Y490546D01*
X2876188Y480550D02*
X2836201D01*
X2876188Y520537D01*
Y530533D01*
X2866191Y540530D01*
X2846197D01*
X2836201Y530533D01*
X2936168Y480550D02*
X2896181D01*
X2936168Y520537D01*
Y530533D01*
X2926171Y540530D01*
X2906178D01*
X2896181Y530533D01*
X6591872Y4525953D02*
X6581875Y4535950D01*
X6561881D01*
X6551885Y4525953D01*
Y4485966D01*
X6561881Y4475970D01*
X6581875D01*
X6591872Y4485966D01*
X6611865Y4475970D02*
X6631859D01*
X6621862D01*
Y4535950D01*
X6611865Y4525953D01*
X6661849Y4485966D02*
X6671845Y4475970D01*
X6691839D01*
X6701836Y4485966D01*
Y4525953D01*
X6691839Y4535950D01*
X6671845D01*
X6661849Y4525953D01*
Y4515957D01*
X6671845Y4505960D01*
X6701836D01*
X6971492Y4531033D02*
X6961495Y4541030D01*
X6941501D01*
X6931505Y4531033D01*
Y4491046D01*
X6941501Y4481050D01*
X6961495D01*
X6971492Y4491046D01*
X6991485Y4481050D02*
X7011479D01*
X7001482D01*
Y4541030D01*
X6991485Y4531033D01*
X7041469D02*
X7051465Y4541030D01*
X7071459D01*
X7081456Y4531033D01*
Y4521037D01*
X7071459Y4511040D01*
X7081456Y4501043D01*
Y4491046D01*
X7071459Y4481050D01*
X7051465D01*
X7041469Y4491046D01*
Y4501043D01*
X7051465Y4511040D01*
X7041469Y4521037D01*
Y4531033D01*
X7051465Y4511040D02*
X7071459D01*
X3228911Y3766493D02*
X3218915Y3776490D01*
X3198921D01*
X3188925Y3766493D01*
Y3726506D01*
X3198921Y3716510D01*
X3218915D01*
X3228911Y3726506D01*
X3248905Y3716510D02*
X3268899D01*
X3258902D01*
Y3776490D01*
X3248905Y3766493D01*
X3298889Y3776490D02*
X3338876D01*
Y3766493D01*
X3298889Y3726506D01*
Y3716510D01*
X3228911Y1307773D02*
X3218915Y1317770D01*
X3198921D01*
X3188925Y1307773D01*
Y1267786D01*
X3198921Y1257790D01*
X3218915D01*
X3228911Y1267786D01*
X3248905Y1257790D02*
X3268899D01*
X3258902D01*
Y1317770D01*
X3248905Y1307773D01*
X3338876Y1317770D02*
X3318882Y1307773D01*
X3298889Y1287780D01*
Y1267786D01*
X3308885Y1257790D01*
X3328879D01*
X3338876Y1267786D01*
Y1277783D01*
X3328879Y1287780D01*
X3298889D01*
X1733007Y2074827D02*
X1723010Y2084824D01*
X1703017D01*
X1693020Y2074827D01*
Y2034840D01*
X1703017Y2024844D01*
X1723010D01*
X1733007Y2034840D01*
X1753001Y2024844D02*
X1772994D01*
X1762997D01*
Y2084824D01*
X1753001Y2074827D01*
X1842971Y2084824D02*
X1802984D01*
Y2054834D01*
X1822978Y2064831D01*
X1832974D01*
X1842971Y2054834D01*
Y2034840D01*
X1832974Y2024844D01*
X1812981D01*
X1802984Y2034840D01*
X1008951Y4271953D02*
X998955Y4281950D01*
X978961D01*
X968965Y4271953D01*
Y4231966D01*
X978961Y4221970D01*
X998955D01*
X1008951Y4231966D01*
X1028945Y4221970D02*
X1048939D01*
X1038942D01*
Y4281950D01*
X1028945Y4271953D01*
X1118916Y4221970D02*
X1078929D01*
X1118916Y4261957D01*
Y4271953D01*
X1108919Y4281950D01*
X1088925D01*
X1078929Y4271953D01*
X2094847Y2074827D02*
X2084850Y2084824D01*
X2064857D01*
X2054860Y2074827D01*
Y2034840D01*
X2064857Y2024844D01*
X2084850D01*
X2094847Y2034840D01*
X2114841Y2024844D02*
X2134834D01*
X2124837D01*
Y2084824D01*
X2114841Y2074827D01*
X2164824Y2024844D02*
X2184818D01*
X2174821D01*
Y2084824D01*
X2164824Y2074827D01*
X2454211Y1795453D02*
X2444215Y1805450D01*
X2424221D01*
X2414225Y1795453D01*
Y1755466D01*
X2424221Y1745470D01*
X2444215D01*
X2454211Y1755466D01*
X2474205Y1745470D02*
X2494199D01*
X2484202D01*
Y1805450D01*
X2474205Y1795453D01*
X2524189D02*
X2534185Y1805450D01*
X2554179D01*
X2564176Y1795453D01*
Y1755466D01*
X2554179Y1745470D01*
X2534185D01*
X2524189Y1755466D01*
Y1795453D01*
X1734167Y530533D02*
X1724170Y540530D01*
X1704177D01*
X1694180Y530533D01*
Y490546D01*
X1704177Y480550D01*
X1724170D01*
X1734167Y490546D01*
X1754161D02*
X1764157Y480550D01*
X1784151D01*
X1794148Y490546D01*
Y530533D01*
X1784151Y540530D01*
X1764157D01*
X1754161Y530533D01*
Y520537D01*
X1764157Y510540D01*
X1794148D01*
X2094307Y530533D02*
X2084310Y540530D01*
X2064317D01*
X2054320Y530533D01*
Y490546D01*
X2064317Y480550D01*
X2084310D01*
X2094307Y490546D01*
X2114301Y530533D02*
X2124297Y540530D01*
X2144291D01*
X2154288Y530533D01*
Y520537D01*
X2144291Y510540D01*
X2154288Y500543D01*
Y490546D01*
X2144291Y480550D01*
X2124297D01*
X2114301Y490546D01*
Y500543D01*
X2124297Y510540D01*
X2114301Y520537D01*
Y530533D01*
X2124297Y510540D02*
X2144291D01*
X1384807Y530533D02*
X1374810Y540530D01*
X1354817D01*
X1344820Y530533D01*
Y490546D01*
X1354817Y480550D01*
X1374810D01*
X1384807Y490546D01*
X1404801Y540530D02*
X1444788D01*
Y530533D01*
X1404801Y490546D01*
Y480550D01*
X1011083Y530533D02*
X1001087Y540530D01*
X981093D01*
X971096Y530533D01*
Y490546D01*
X981093Y480550D01*
X1001087D01*
X1011083Y490546D01*
X1071064Y540530D02*
X1051071Y530533D01*
X1031077Y510540D01*
Y490546D01*
X1041074Y480550D01*
X1061067D01*
X1071064Y490546D01*
Y500543D01*
X1061067Y510540D01*
X1031077D01*
X1948343Y3570913D02*
X1938347Y3580910D01*
X1918353D01*
X1908356Y3570913D01*
Y3530926D01*
X1918353Y3520930D01*
X1938347D01*
X1948343Y3530926D01*
X2008324Y3580910D02*
X1968337D01*
Y3550920D01*
X1988331Y3560917D01*
X1998327D01*
X2008324Y3550920D01*
Y3530926D01*
X1998327Y3520930D01*
X1978334D01*
X1968337Y3530926D01*
X2469043Y3309293D02*
X2459047Y3319290D01*
X2439053D01*
X2429056Y3309293D01*
Y3269306D01*
X2439053Y3259310D01*
X2459047D01*
X2469043Y3269306D01*
X2519027Y3259310D02*
Y3319290D01*
X2489037Y3289300D01*
X2529024D01*
X1950883Y2552373D02*
X1940887Y2562370D01*
X1920893D01*
X1910896Y2552373D01*
Y2512386D01*
X1920893Y2502390D01*
X1940887D01*
X1950883Y2512386D01*
X1970877Y2552373D02*
X1980874Y2562370D01*
X2000867D01*
X2010864Y2552373D01*
Y2542377D01*
X2000867Y2532380D01*
X1990871D01*
X2000867D01*
X2010864Y2522383D01*
Y2512386D01*
X2000867Y2502390D01*
X1980874D01*
X1970877Y2512386D01*
X2322012Y2552373D02*
X2312015Y2562370D01*
X2292022D01*
X2282025Y2552373D01*
Y2512386D01*
X2292022Y2502390D01*
X2312015D01*
X2322012Y2512386D01*
X2381992Y2502390D02*
X2342005D01*
X2381992Y2542377D01*
Y2552373D01*
X2371996Y2562370D01*
X2352002D01*
X2342005Y2552373D01*
%TF.MD5,7b717b5531ce2e5b4c39d4e8d8bf1846*%
M02*
