%TF.GenerationSoftware,Altium Limited,Altium Designer,24.9.1 (31)*%
G04 Layer_Color=0*
%FSLAX45Y45*%
%MOMM*%
%TF.SameCoordinates,87F55232-172A-40C5-9850-FF0673041AA3*%
%TF.FilePolarity,Positive*%
%TF.FileFunction,Plated,1,2,PTH,Drill*%
%TF.Part,Single*%
G01*
G75*
%TA.AperFunction,OtherDrill,Pad Free-1 (77mm,3mm)*%
%ADD100C,3.30000*%
%TA.AperFunction,OtherDrill,Pad Free-1 (77mm,57mm)*%
%ADD101C,3.30000*%
%TA.AperFunction,OtherDrill,Pad Free-1 (3mm,3mm)*%
%ADD102C,3.30000*%
%TA.AperFunction,OtherDrill,Pad Free-1 (3mm,57mm)*%
%ADD103C,3.30000*%
%TA.AperFunction,ComponentDrill*%
%ADD104C,1.10000*%
%ADD105C,0.70000*%
%ADD106O,1.40000X0.85000*%
%ADD107O,1.20000X0.55000*%
%ADD108O,2.54000X1.27000*%
%ADD109O,1.27000X2.54000*%
%ADD110C,2.00000*%
%TA.AperFunction,ViaDrill,NotFilled*%
%ADD111C,0.60000*%
%ADD112C,0.25400*%
D100*
X7700000Y300000D02*
D03*
D101*
Y5700000D02*
D03*
D102*
X300000Y300000D02*
D03*
D103*
Y5700000D02*
D03*
D104*
X6989000Y5597000D02*
D03*
X6735000D02*
D03*
X6481000D02*
D03*
X6227000D02*
D03*
X5973000D02*
D03*
X5719000D02*
D03*
X5465000D02*
D03*
X5211000D02*
D03*
Y5343000D02*
D03*
X5465000D02*
D03*
X5719000D02*
D03*
X5973000D02*
D03*
X6227000D02*
D03*
X6481000D02*
D03*
X6735000D02*
D03*
X6989000D02*
D03*
X3683000Y5676900D02*
D03*
X3937000D02*
D03*
X4191000D02*
D03*
X4445000D02*
D03*
X4699000D02*
D03*
X4700000Y400000D02*
D03*
X4446000D02*
D03*
X4192000D02*
D03*
X3938000D02*
D03*
X4701000Y1027000D02*
D03*
X4447000D02*
D03*
X4193000D02*
D03*
X3939000D02*
D03*
Y773000D02*
D03*
X4193000D02*
D03*
X4447000D02*
D03*
X4701000D02*
D03*
X1607820Y2500000D02*
D03*
X1353820D02*
D03*
X1099820D02*
D03*
X1607820Y3300000D02*
D03*
X1353820D02*
D03*
X1099820D02*
D03*
X6989000Y403000D02*
D03*
X6735000D02*
D03*
X6481000D02*
D03*
X6227000D02*
D03*
X5973000D02*
D03*
X5719000D02*
D03*
X5465000D02*
D03*
X5211000D02*
D03*
Y657000D02*
D03*
X5465000D02*
D03*
X5719000D02*
D03*
X5973000D02*
D03*
X6227000D02*
D03*
X6481000D02*
D03*
X6735000D02*
D03*
X6989000D02*
D03*
D105*
X4454000Y5163500D02*
D03*
X4327000D02*
D03*
X4200000D02*
D03*
X4073000D02*
D03*
X3946000D02*
D03*
X4454000Y5036500D02*
D03*
X4327000D02*
D03*
X4200000D02*
D03*
X4073000D02*
D03*
X3946000D02*
D03*
D106*
X632900Y1363100D02*
D03*
Y618100D02*
D03*
D107*
X252900Y1378100D02*
D03*
Y603100D02*
D03*
D108*
X913500Y4496000D02*
D03*
D109*
X532500Y5004000D02*
D03*
X1167500D02*
D03*
D110*
X431800Y3370000D02*
D03*
Y2430000D02*
D03*
Y2900000D02*
D03*
D111*
X7747000Y5461219D02*
D03*
Y4699219D02*
D03*
Y1651219D02*
D03*
Y889219D02*
D03*
X7556500Y508219D02*
D03*
X7175500Y5080219D02*
D03*
X6985000Y1651219D02*
D03*
X6794500Y3556219D02*
D03*
X6604000Y3175219D02*
D03*
X6794500Y2794219D02*
D03*
X6604000Y2413219D02*
D03*
X6794500Y2032219D02*
D03*
X6604000Y1651219D02*
D03*
X6413500Y4318219D02*
D03*
X6223000Y3175219D02*
D03*
X6413500Y2794219D02*
D03*
X6223000Y2413219D02*
D03*
X5842000Y3175219D02*
D03*
Y2413219D02*
D03*
X5651500Y3556219D02*
D03*
X5270500D02*
D03*
X5080000Y3175219D02*
D03*
X5270500Y2794219D02*
D03*
X4889500D02*
D03*
X4318000Y889219D02*
D03*
X3937000Y5461219D02*
D03*
X3556000D02*
D03*
X3746500Y508219D02*
D03*
X2794000Y5461219D02*
D03*
X2984500Y5080219D02*
D03*
Y3556219D02*
D03*
Y508219D02*
D03*
X2413000Y5461219D02*
D03*
X2603500Y508219D02*
D03*
X2032000Y5461219D02*
D03*
Y4699219D02*
D03*
X2222500Y508219D02*
D03*
X1651000Y4699219D02*
D03*
X1841500Y2794219D02*
D03*
X1460500D02*
D03*
X1270000Y127219D02*
D03*
X889000Y4699219D02*
D03*
X1079500Y3556219D02*
D03*
X889000Y889219D02*
D03*
Y127219D02*
D03*
X508000Y4699219D02*
D03*
X698500Y3556219D02*
D03*
X508000Y127219D02*
D03*
X127000Y5461219D02*
D03*
X317500Y4318219D02*
D03*
X127000Y889219D02*
D03*
D112*
X3020060Y2395220D02*
D03*
X5671820Y2865120D02*
D03*
X2296160Y619760D02*
D03*
X1088580Y1018993D02*
D03*
X767080Y855980D02*
D03*
X635000Y1501140D02*
D03*
X406400Y1808480D02*
D03*
X5839460Y3573780D02*
D03*
X6316980Y3576320D02*
D03*
X2169160Y4043680D02*
D03*
X1884680Y3131820D02*
D03*
X2212340Y3418840D02*
D03*
X2207260Y2402840D02*
D03*
X2593340Y2646680D02*
D03*
X6432247Y1851319D02*
D03*
X2234001Y1278096D02*
D03*
X2232870Y1094942D02*
D03*
X2964180Y3997960D02*
D03*
X2286597Y2643909D02*
D03*
X2592070Y2435860D02*
D03*
X2606040Y2273300D02*
D03*
X2611266Y1812128D02*
D03*
X3787140Y2468880D02*
D03*
X3779520Y3129280D02*
D03*
X3784600Y3482340D02*
D03*
X3779520Y2791460D02*
D03*
X3134360Y4277360D02*
D03*
X3611880Y4693920D02*
D03*
X3492500Y3634740D02*
D03*
X1978660Y563880D02*
D03*
X2430780Y561340D02*
D03*
X3373120Y5173980D02*
D03*
X3388360Y576580D02*
D03*
X3373120Y5415280D02*
D03*
X4559300Y2682240D02*
D03*
Y2811780D02*
D03*
Y2936240D02*
D03*
Y3065780D02*
D03*
Y3192780D02*
D03*
Y3317240D02*
D03*
Y3441700D02*
D03*
X3507740Y2092960D02*
D03*
X5417820Y2273300D02*
D03*
X5552440Y2331720D02*
D03*
X5163820Y2214880D02*
D03*
X5034280D02*
D03*
X4780280D02*
D03*
X3230880Y1998980D02*
D03*
X2979420Y3406140D02*
D03*
X3371244Y4411044D02*
D03*
X2230120Y909320D02*
D03*
X1606833Y215295D02*
D03*
X1274316Y1911186D02*
D03*
X1838960Y3299460D02*
D03*
X3375660Y2062480D02*
D03*
X2973585Y1616195D02*
D03*
X2623820Y1610360D02*
D03*
X1771650Y2228850D02*
D03*
X4734560Y4632960D02*
D03*
X4650740Y4549140D02*
D03*
X4803140Y4706620D02*
D03*
X4881880Y4785360D02*
D03*
X4955540Y4879340D02*
D03*
X4020820Y4368800D02*
D03*
X165100Y3741420D02*
D03*
X5605780Y3126740D02*
D03*
X5539740Y3756660D02*
D03*
X5419876Y3759907D02*
D03*
X6431280Y3787140D02*
D03*
X6187440Y3789680D02*
D03*
X6057900D02*
D03*
X5925820D02*
D03*
X5801360Y3792220D02*
D03*
X3006680Y2026576D02*
D03*
X1767840Y1074420D02*
D03*
X1976120Y1617980D02*
D03*
X1607820Y1686560D02*
D03*
X3373120Y1788160D02*
D03*
X2971800Y1338580D02*
D03*
X2849880Y2608580D02*
D03*
X2496820Y1610360D02*
D03*
X863600Y1554480D02*
D03*
X2362200Y1336040D02*
D03*
X1102547Y2956373D02*
D03*
X1335566Y5478893D02*
D03*
X2061075Y3610254D02*
D03*
X1607820Y2842260D02*
D03*
%TF.MD5,04c2196a386758fe621167804b3945bb*%
M02*
