%TF.GenerationSoftware,Altium Limited,Altium Designer,24.9.1 (31)*%
G04 Layer_Color=8388736*
%FSLAX45Y45*%
%MOMM*%
%TF.SameCoordinates,87F55232-172A-40C5-9850-FF0673041AA3*%
%TF.FilePolarity,Negative*%
%TF.FileFunction,Soldermask,Top*%
%TF.Part,Single*%
G01*
G75*
%TA.AperFunction,ViaPad*%
%ADD50C,0.63500*%
%TA.AperFunction,SMDPad,CuDef*%
%ADD64R,1.70320X1.10320*%
%ADD65R,1.00320X2.30320*%
%ADD66R,2.30320X1.00320*%
%TA.AperFunction,ConnectorPad*%
%ADD67R,0.85320X3.50320*%
%ADD68R,0.90320X3.50320*%
%TA.AperFunction,SMDPad,CuDef*%
%ADD69R,0.60320X1.70320*%
%ADD70R,4.70320X1.95320*%
%ADD71R,1.30320X1.40320*%
%ADD72R,0.75320X1.10320*%
%ADD73C,1.70320*%
%ADD74R,3.20320X1.20320*%
G04:AMPARAMS|DCode=75|XSize=1.4132mm|YSize=0.7932mm|CornerRadius=0.17535mm|HoleSize=0mm|Usage=FLASHONLY|Rotation=0.000|XOffset=0mm|YOffset=0mm|HoleType=Round|Shape=RoundedRectangle|*
%AMROUNDEDRECTD75*
21,1,1.41320,0.44250,0,0,0.0*
21,1,1.06250,0.79320,0,0,0.0*
1,1,0.35070,0.53125,-0.22125*
1,1,0.35070,-0.53125,-0.22125*
1,1,0.35070,-0.53125,0.22125*
1,1,0.35070,0.53125,0.22125*
%
%ADD75ROUNDEDRECTD75*%
%ADD76R,1.50320X0.65320*%
G04:AMPARAMS|DCode=77|XSize=2.1732mm|YSize=0.7932mm|CornerRadius=0.17535mm|HoleSize=0mm|Usage=FLASHONLY|Rotation=270.000|XOffset=0mm|YOffset=0mm|HoleType=Round|Shape=RoundedRectangle|*
%AMROUNDEDRECTD77*
21,1,2.17320,0.44250,0,0,270.0*
21,1,1.82250,0.79320,0,0,270.0*
1,1,0.35070,-0.22125,-0.91125*
1,1,0.35070,-0.22125,0.91125*
1,1,0.35070,0.22125,0.91125*
1,1,0.35070,0.22125,-0.91125*
%
%ADD77ROUNDEDRECTD77*%
%ADD78R,2.35320X1.10320*%
%ADD79R,2.35320X3.45320*%
%ADD80R,1.80320X2.80320*%
%ADD81R,2.30320X1.75320*%
%ADD82R,1.50320X1.70320*%
G04:AMPARAMS|DCode=83|XSize=1.5732mm|YSize=0.7932mm|CornerRadius=0.2491mm|HoleSize=0mm|Usage=FLASHONLY|Rotation=0.000|XOffset=0mm|YOffset=0mm|HoleType=Round|Shape=RoundedRectangle|*
%AMROUNDEDRECTD83*
21,1,1.57320,0.29500,0,0,0.0*
21,1,1.07500,0.79320,0,0,0.0*
1,1,0.49820,0.53750,-0.14750*
1,1,0.49820,-0.53750,-0.14750*
1,1,0.49820,-0.53750,0.14750*
1,1,0.49820,0.53750,0.14750*
%
%ADD83ROUNDEDRECTD83*%
%TA.AperFunction,ViaPad*%
%ADD84C,1.72720*%
%TA.AperFunction,ComponentPad*%
%ADD85R,1.80320X1.80320*%
%ADD86C,1.80320*%
%ADD87C,1.20320*%
%ADD88O,2.20320X1.65320*%
%ADD89O,2.00320X1.35320*%
%ADD90C,1.00320*%
%ADD91R,4.26720X2.74320*%
%ADD92R,2.74320X4.26720*%
%ADD93R,1.81320X1.80320*%
%ADD94O,1.81320X1.80320*%
%ADD95C,3.20000*%
%TA.AperFunction,ViaPad*%
%ADD96C,0.71120*%
D50*
X863600Y1554480D02*
D03*
D64*
X630000Y3887500D02*
D03*
X170000D02*
D03*
Y4112500D02*
D03*
X630000D02*
D03*
Y1687500D02*
D03*
X170000D02*
D03*
Y1912500D02*
D03*
X630000D02*
D03*
D65*
X6179820Y2048500D02*
D03*
X5798820D02*
D03*
X5671820D02*
D03*
X5544820D02*
D03*
X5417820D02*
D03*
X5290820D02*
D03*
X6306820D02*
D03*
X6433820D02*
D03*
X5925820D02*
D03*
X6052820D02*
D03*
X6433820Y3951500D02*
D03*
X6306820D02*
D03*
X6179820D02*
D03*
X6052820D02*
D03*
X5925820D02*
D03*
X5798820D02*
D03*
X5671820D02*
D03*
X5544820D02*
D03*
X5417820D02*
D03*
X5290820D02*
D03*
X5163820Y2048500D02*
D03*
Y3951500D02*
D03*
X5036820Y2048500D02*
D03*
Y3951500D02*
D03*
X4909820Y2048500D02*
D03*
Y3951500D02*
D03*
D66*
X4709820Y2428500D02*
D03*
Y2555500D02*
D03*
Y2682500D02*
D03*
Y2809500D02*
D03*
Y2936500D02*
D03*
Y3190500D02*
D03*
Y3317500D02*
D03*
Y3444500D02*
D03*
Y3063500D02*
D03*
Y3571500D02*
D03*
D67*
X2575000Y5140000D02*
D03*
D68*
X2825000D02*
D03*
D69*
X2622500Y1487500D02*
D03*
X2557500D02*
D03*
X2492500D02*
D03*
X2427500D02*
D03*
X2362500D02*
D03*
X2297500D02*
D03*
X2232500D02*
D03*
X2167500D02*
D03*
X2102500D02*
D03*
X2037500D02*
D03*
X1972500D02*
D03*
X1907500D02*
D03*
X1842500D02*
D03*
X1777500D02*
D03*
Y762500D02*
D03*
X1842500D02*
D03*
X1907500D02*
D03*
X1972500D02*
D03*
X2037500D02*
D03*
X2102500D02*
D03*
X2167500D02*
D03*
X2232500D02*
D03*
X2297500D02*
D03*
X2362500D02*
D03*
X2427500D02*
D03*
X2492500D02*
D03*
X2557500D02*
D03*
X2622500D02*
D03*
D70*
X2438400Y4734500D02*
D03*
Y4409500D02*
D03*
D71*
X3269460Y3073536D02*
D03*
X3059460D02*
D03*
X3933600Y2394510D02*
D03*
X4143600D02*
D03*
X3933600Y2734023D02*
D03*
X4143600D02*
D03*
X3933600Y3073536D02*
D03*
X4143600D02*
D03*
X3933600Y3413049D02*
D03*
X4143600D02*
D03*
X2303000Y3640000D02*
D03*
X2513000D02*
D03*
X2302920Y2156460D02*
D03*
X2512920D02*
D03*
X3069840Y2734023D02*
D03*
X3279840D02*
D03*
D72*
X2105900Y2395220D02*
D03*
X1960900D02*
D03*
X3384120Y3888210D02*
D03*
X3239120D02*
D03*
X3239660Y3632200D02*
D03*
X3384660D02*
D03*
X3239660Y4111790D02*
D03*
X3384660D02*
D03*
X2476445Y3413760D02*
D03*
X2331445D02*
D03*
X2105870D02*
D03*
X1960870D02*
D03*
X2609960Y1912620D02*
D03*
X2464960D02*
D03*
X3373960Y1142590D02*
D03*
X3228960D02*
D03*
X2825640Y755445D02*
D03*
X2970640D02*
D03*
X2825640Y1141170D02*
D03*
X2970640D02*
D03*
X1022240Y368300D02*
D03*
X1167240D02*
D03*
X2248740Y369720D02*
D03*
X2103740D02*
D03*
X1743600Y368300D02*
D03*
X1888600D02*
D03*
X1394240D02*
D03*
X1539240D02*
D03*
X2971180D02*
D03*
X2826180D02*
D03*
X2609960Y369720D02*
D03*
X2464960D02*
D03*
X2826180Y1525475D02*
D03*
X2971180D02*
D03*
X2970640Y1912620D02*
D03*
X2825640D02*
D03*
X3228960Y1912619D02*
D03*
X3373960D02*
D03*
X3374500Y1526185D02*
D03*
X3229500D02*
D03*
X1527920Y1686790D02*
D03*
X1382920D02*
D03*
X3243580Y3412340D02*
D03*
X3098580D02*
D03*
X3664060Y3413760D02*
D03*
X3519060D02*
D03*
X2847560Y3412340D02*
D03*
X2702560D02*
D03*
X3666600Y2393800D02*
D03*
X3521600D02*
D03*
X3653900Y2733313D02*
D03*
X3508900D02*
D03*
X3653900Y3072826D02*
D03*
X3508900D02*
D03*
X1527920Y1912620D02*
D03*
X1382920D02*
D03*
X2249280D02*
D03*
X2104280D02*
D03*
X1888600D02*
D03*
X1743600D02*
D03*
X6981080Y4376420D02*
D03*
X7126080D02*
D03*
X6751540D02*
D03*
X6606540D02*
D03*
X1167240Y1912620D02*
D03*
X1022240D02*
D03*
X1167240Y1686790D02*
D03*
X1022240D02*
D03*
X3253960Y2393800D02*
D03*
X3108960D02*
D03*
X2847560D02*
D03*
X2702560D02*
D03*
X2812940Y3888210D02*
D03*
X2957940D02*
D03*
X2960480Y4111790D02*
D03*
X2815480D02*
D03*
X1167240Y3886790D02*
D03*
X1022240D02*
D03*
X2331445Y2395220D02*
D03*
X2476445D02*
D03*
X1167240Y4111790D02*
D03*
X1022240D02*
D03*
D73*
X7579360Y4803140D02*
D03*
Y4434840D02*
D03*
Y5163820D02*
D03*
D74*
X4300000Y4370000D02*
D03*
Y3920000D02*
D03*
X3700000Y4370000D02*
D03*
Y3920000D02*
D03*
X4300000Y1943520D02*
D03*
Y1493520D02*
D03*
X3700000Y1943520D02*
D03*
Y1493520D02*
D03*
D75*
X1457960Y926080D02*
D03*
Y1116080D02*
D03*
X1206960D02*
D03*
Y1021080D02*
D03*
Y926080D02*
D03*
X1457960Y1021080D02*
D03*
D76*
X632900Y990600D02*
D03*
Y1055600D02*
D03*
Y1120600D02*
D03*
Y860600D02*
D03*
Y925600D02*
D03*
D77*
X3581400Y368300D02*
D03*
X3454400D02*
D03*
X3327400D02*
D03*
X3200400D02*
D03*
Y863300D02*
D03*
X3327400D02*
D03*
X3454400D02*
D03*
X3581400D02*
D03*
D78*
X2033640Y3129000D02*
D03*
Y2900000D02*
D03*
Y2671000D02*
D03*
D79*
X2619640Y2900000D02*
D03*
D80*
X2997200Y4752000D02*
D03*
Y4392000D02*
D03*
X1701800Y4925400D02*
D03*
Y5285400D02*
D03*
Y4142400D02*
D03*
Y3782400D02*
D03*
D81*
X1532600Y4521200D02*
D03*
X1972600D02*
D03*
Y5723830D02*
D03*
X1532600D02*
D03*
D82*
X1105920Y5720080D02*
D03*
X916940Y5720080D02*
D03*
D83*
X2296000Y4133600D02*
D03*
Y4038600D02*
D03*
Y3943600D02*
D03*
X2530000D02*
D03*
Y4038600D02*
D03*
Y4133600D02*
D03*
D84*
X7700000Y300000D02*
D03*
Y5700000D02*
D03*
X300000Y300000D02*
D03*
Y5700000D02*
D03*
D85*
X6989000Y5597000D02*
D03*
X4699000Y5676900D02*
D03*
X4700000Y400000D02*
D03*
X1099820Y2500000D02*
D03*
Y3300000D02*
D03*
X6989000Y657000D02*
D03*
D86*
X6735000Y5597000D02*
D03*
X6481000D02*
D03*
X6227000D02*
D03*
X5973000D02*
D03*
X5719000D02*
D03*
X5465000D02*
D03*
X5211000D02*
D03*
Y5343000D02*
D03*
X5465000D02*
D03*
X5719000D02*
D03*
X5973000D02*
D03*
X6227000D02*
D03*
X6481000D02*
D03*
X6735000D02*
D03*
X6989000D02*
D03*
X3683000Y5676900D02*
D03*
X3937000D02*
D03*
X4191000D02*
D03*
X4445000D02*
D03*
X4446000Y400000D02*
D03*
X4192000D02*
D03*
X3938000D02*
D03*
X1607820Y2500000D02*
D03*
X1353820D02*
D03*
X1607820Y3300000D02*
D03*
X1353820D02*
D03*
X6989000Y403000D02*
D03*
X6735000D02*
D03*
X6481000D02*
D03*
X6227000D02*
D03*
X5973000D02*
D03*
X5719000D02*
D03*
X5465000D02*
D03*
X5211000D02*
D03*
Y657000D02*
D03*
X5465000D02*
D03*
X5719000D02*
D03*
X5973000D02*
D03*
X6227000D02*
D03*
X6481000D02*
D03*
X6735000D02*
D03*
D87*
X4454000Y5163500D02*
D03*
X4327000D02*
D03*
X4200000D02*
D03*
X4073000D02*
D03*
X3946000D02*
D03*
X4454000Y5036500D02*
D03*
X4327000D02*
D03*
X4200000D02*
D03*
X4073000D02*
D03*
X3946000D02*
D03*
D88*
X632900Y1363100D02*
D03*
Y618100D02*
D03*
D89*
X252900Y1378100D02*
D03*
Y603100D02*
D03*
D90*
X527900Y1240600D02*
D03*
Y740600D02*
D03*
D91*
X913500Y4496000D02*
D03*
D92*
X532500Y5004000D02*
D03*
X1167500D02*
D03*
D93*
X4701000Y1027000D02*
D03*
D94*
X4447000D02*
D03*
X4193000D02*
D03*
X3939000D02*
D03*
Y773000D02*
D03*
X4193000D02*
D03*
X4447000D02*
D03*
X4701000D02*
D03*
D95*
X431800Y3370000D02*
D03*
Y2430000D02*
D03*
Y2900000D02*
D03*
D96*
X3020060Y2395220D02*
D03*
X5671820Y2865120D02*
D03*
X2296160Y619760D02*
D03*
X3373120Y5173980D02*
D03*
X3388360Y576580D02*
D03*
X3373120Y5415280D02*
D03*
X4559300Y2682240D02*
D03*
Y2811780D02*
D03*
Y2936240D02*
D03*
Y3065780D02*
D03*
Y3192780D02*
D03*
Y3317240D02*
D03*
Y3441700D02*
D03*
X3507740Y2092960D02*
D03*
X5417820Y2273300D02*
D03*
X5552440Y2331720D02*
D03*
X5163820Y2214880D02*
D03*
X5034280D02*
D03*
X4780280D02*
D03*
X3230880Y1998980D02*
D03*
X2979420Y3406140D02*
D03*
X3371244Y4411044D02*
D03*
X2230120Y909320D02*
D03*
X1606833Y215295D02*
D03*
X1274316Y1911186D02*
D03*
X1838960Y3299460D02*
D03*
X3375660Y2062480D02*
D03*
X2973585Y1616195D02*
D03*
X2623820Y1610360D02*
D03*
X1771650Y2228850D02*
D03*
X4734560Y4632960D02*
D03*
X4650740Y4549140D02*
D03*
X4803140Y4706620D02*
D03*
X4881880Y4785360D02*
D03*
X4955540Y4879340D02*
D03*
X4020820Y4368800D02*
D03*
X165100Y3741420D02*
D03*
X5605780Y3126740D02*
D03*
X5539740Y3756660D02*
D03*
X5419876Y3759907D02*
D03*
X6431280Y3787140D02*
D03*
X6187440Y3789680D02*
D03*
X6057900D02*
D03*
X5925820D02*
D03*
X5801360Y3792220D02*
D03*
X3006680Y2026576D02*
D03*
X1767840Y1074420D02*
D03*
X1976120Y1617980D02*
D03*
X1607820Y1686560D02*
D03*
X3373120Y1788160D02*
D03*
X2971800Y1338580D02*
D03*
X2849880Y2608580D02*
D03*
X2496820Y1610360D02*
D03*
X2362200Y1336040D02*
D03*
X1102547Y2956373D02*
D03*
X1335566Y5478893D02*
D03*
X2061075Y3610254D02*
D03*
X1607820Y2842260D02*
D03*
%TF.MD5,6035e6866be43707f76eb52f2885d004*%
M02*
