%TF.GenerationSoftware,Altium Limited,Altium Designer,24.9.1 (31)*%
G04 Layer_Color=255*
%FSLAX45Y45*%
%MOMM*%
%TF.SameCoordinates,87F55232-172A-40C5-9850-FF0673041AA3*%
%TF.FilePolarity,Positive*%
%TF.FileFunction,Pads,Bot*%
%TF.Part,Single*%
G01*
G75*
%TA.AperFunction,ViaPad*%
%ADD36C,1.52400*%
%TA.AperFunction,ComponentPad*%
%ADD37R,1.60000X1.60000*%
%ADD38C,1.60000*%
%ADD39C,1.00000*%
%ADD40O,2.00000X1.45000*%
%ADD41O,1.80000X1.15000*%
%ADD42C,0.80000*%
%ADD43R,4.06400X2.54000*%
%ADD44R,2.54000X4.06400*%
%ADD45R,1.61000X1.60000*%
%ADD46O,1.61000X1.60000*%
%ADD47C,3.00000*%
%TA.AperFunction,SMDPad,CuDef*%
%ADD51R,4.20000X3.20000*%
D36*
X7700000Y300000D02*
D03*
Y5700000D02*
D03*
X300000Y300000D02*
D03*
Y5700000D02*
D03*
D37*
X6989000Y5597000D02*
D03*
X4699000Y5676900D02*
D03*
X4700000Y400000D02*
D03*
X1099820Y2500000D02*
D03*
Y3300000D02*
D03*
X6989000Y657000D02*
D03*
D38*
X6735000Y5597000D02*
D03*
X6481000D02*
D03*
X6227000D02*
D03*
X5973000D02*
D03*
X5719000D02*
D03*
X5465000D02*
D03*
X5211000D02*
D03*
Y5343000D02*
D03*
X5465000D02*
D03*
X5719000D02*
D03*
X5973000D02*
D03*
X6227000D02*
D03*
X6481000D02*
D03*
X6735000D02*
D03*
X6989000D02*
D03*
X3683000Y5676900D02*
D03*
X3937000D02*
D03*
X4191000D02*
D03*
X4445000D02*
D03*
X4446000Y400000D02*
D03*
X4192000D02*
D03*
X3938000D02*
D03*
X1607820Y2500000D02*
D03*
X1353820D02*
D03*
X1607820Y3300000D02*
D03*
X1353820D02*
D03*
X6989000Y403000D02*
D03*
X6735000D02*
D03*
X6481000D02*
D03*
X6227000D02*
D03*
X5973000D02*
D03*
X5719000D02*
D03*
X5465000D02*
D03*
X5211000D02*
D03*
Y657000D02*
D03*
X5465000D02*
D03*
X5719000D02*
D03*
X5973000D02*
D03*
X6227000D02*
D03*
X6481000D02*
D03*
X6735000D02*
D03*
D39*
X4454000Y5163500D02*
D03*
X4327000D02*
D03*
X4200000D02*
D03*
X4073000D02*
D03*
X3946000D02*
D03*
X4454000Y5036500D02*
D03*
X4327000D02*
D03*
X4200000D02*
D03*
X4073000D02*
D03*
X3946000D02*
D03*
D40*
X632900Y1363100D02*
D03*
Y618100D02*
D03*
D41*
X252900Y1378100D02*
D03*
Y603100D02*
D03*
D42*
X527900Y1240600D02*
D03*
Y740600D02*
D03*
D43*
X913500Y4496000D02*
D03*
D44*
X532500Y5004000D02*
D03*
X1167500D02*
D03*
D45*
X4701000Y1027000D02*
D03*
D46*
X4447000D02*
D03*
X4193000D02*
D03*
X3939000D02*
D03*
Y773000D02*
D03*
X4193000D02*
D03*
X4447000D02*
D03*
X4701000D02*
D03*
D47*
X431800Y3370000D02*
D03*
Y2430000D02*
D03*
Y2900000D02*
D03*
D51*
X3700780Y4396160D02*
D03*
Y1466160D02*
D03*
%TF.MD5,5bf3dc4b4e2c87d97186c6688eb12705*%
M02*
