%TF.GenerationSoftware,Altium Limited,Altium Designer,24.9.1 (31)*%
G04 Layer_Color=255*
%FSLAX45Y45*%
%MOMM*%
%TF.SameCoordinates,87F55232-172A-40C5-9850-FF0673041AA3*%
%TF.FilePolarity,Positive*%
%TF.FileFunction,Pads,Top*%
%TF.Part,Single*%
G01*
G75*
%TA.AperFunction,SMDPad,CuDef*%
%ADD10R,1.50000X0.90000*%
%ADD11R,0.80000X2.10000*%
%ADD12R,2.10000X0.80000*%
%TA.AperFunction,ConnectorPad*%
%ADD13R,0.65000X3.30000*%
%ADD14R,0.70000X3.30000*%
%TA.AperFunction,SMDPad,CuDef*%
%ADD15R,0.40000X1.50000*%
%ADD16R,4.50000X1.75000*%
%ADD17R,1.10000X1.20000*%
%ADD18R,0.55000X0.90000*%
%ADD19C,1.50000*%
%ADD20R,3.00000X1.00000*%
G04:AMPARAMS|DCode=21|XSize=1.21mm|YSize=0.59mm|CornerRadius=0.07375mm|HoleSize=0mm|Usage=FLASHONLY|Rotation=0.000|XOffset=0mm|YOffset=0mm|HoleType=Round|Shape=RoundedRectangle|*
%AMROUNDEDRECTD21*
21,1,1.21000,0.44250,0,0,0.0*
21,1,1.06250,0.59000,0,0,0.0*
1,1,0.14750,0.53125,-0.22125*
1,1,0.14750,-0.53125,-0.22125*
1,1,0.14750,-0.53125,0.22125*
1,1,0.14750,0.53125,0.22125*
%
%ADD21ROUNDEDRECTD21*%
%ADD22R,1.30000X0.45000*%
G04:AMPARAMS|DCode=23|XSize=1.97mm|YSize=0.59mm|CornerRadius=0.07375mm|HoleSize=0mm|Usage=FLASHONLY|Rotation=270.000|XOffset=0mm|YOffset=0mm|HoleType=Round|Shape=RoundedRectangle|*
%AMROUNDEDRECTD23*
21,1,1.97000,0.44250,0,0,270.0*
21,1,1.82250,0.59000,0,0,270.0*
1,1,0.14750,-0.22125,-0.91125*
1,1,0.14750,-0.22125,0.91125*
1,1,0.14750,0.22125,0.91125*
1,1,0.14750,0.22125,-0.91125*
%
%ADD23ROUNDEDRECTD23*%
%ADD24R,2.15000X0.90000*%
%ADD25R,2.15000X3.25000*%
%ADD26R,1.60000X2.60000*%
%ADD27R,2.10000X1.55000*%
%ADD28R,1.30000X1.50000*%
G04:AMPARAMS|DCode=29|XSize=1.37mm|YSize=0.59mm|CornerRadius=0.1475mm|HoleSize=0mm|Usage=FLASHONLY|Rotation=0.000|XOffset=0mm|YOffset=0mm|HoleType=Round|Shape=RoundedRectangle|*
%AMROUNDEDRECTD29*
21,1,1.37000,0.29500,0,0,0.0*
21,1,1.07500,0.59000,0,0,0.0*
1,1,0.29500,0.53750,-0.14750*
1,1,0.29500,-0.53750,-0.14750*
1,1,0.29500,-0.53750,0.14750*
1,1,0.29500,0.53750,0.14750*
%
%ADD29ROUNDEDRECTD29*%
%TA.AperFunction,ViaPad*%
%ADD36C,1.52400*%
%TA.AperFunction,ComponentPad*%
%ADD37R,1.60000X1.60000*%
%ADD38C,1.60000*%
%ADD39C,1.00000*%
%ADD40O,2.00000X1.45000*%
%ADD41O,1.80000X1.15000*%
%ADD42C,0.80000*%
%ADD43R,4.06400X2.54000*%
%ADD44R,2.54000X4.06400*%
%ADD45R,1.61000X1.60000*%
%ADD46O,1.61000X1.60000*%
%ADD47C,3.00000*%
D10*
X630000Y3887500D02*
D03*
X170000D02*
D03*
Y4112500D02*
D03*
X630000D02*
D03*
Y1687500D02*
D03*
X170000D02*
D03*
Y1912500D02*
D03*
X630000D02*
D03*
D11*
X6179820Y2048500D02*
D03*
X5798820D02*
D03*
X5671820D02*
D03*
X5544820D02*
D03*
X5417820D02*
D03*
X5290820D02*
D03*
X6306820D02*
D03*
X6433820D02*
D03*
X5925820D02*
D03*
X6052820D02*
D03*
X6433820Y3951500D02*
D03*
X6306820D02*
D03*
X6179820D02*
D03*
X6052820D02*
D03*
X5925820D02*
D03*
X5798820D02*
D03*
X5671820D02*
D03*
X5544820D02*
D03*
X5417820D02*
D03*
X5290820D02*
D03*
X5163820Y2048500D02*
D03*
Y3951500D02*
D03*
X5036820Y2048500D02*
D03*
Y3951500D02*
D03*
X4909820Y2048500D02*
D03*
Y3951500D02*
D03*
D12*
X4709820Y2428500D02*
D03*
Y2555500D02*
D03*
Y2682500D02*
D03*
Y2809500D02*
D03*
Y2936500D02*
D03*
Y3190500D02*
D03*
Y3317500D02*
D03*
Y3444500D02*
D03*
Y3063500D02*
D03*
Y3571500D02*
D03*
D13*
X2575000Y5140000D02*
D03*
D14*
X2825000D02*
D03*
D15*
X2622500Y1487500D02*
D03*
X2557500D02*
D03*
X2492500D02*
D03*
X2427500D02*
D03*
X2362500D02*
D03*
X2297500D02*
D03*
X2232500D02*
D03*
X2167500D02*
D03*
X2102500D02*
D03*
X2037500D02*
D03*
X1972500D02*
D03*
X1907500D02*
D03*
X1842500D02*
D03*
X1777500D02*
D03*
Y762500D02*
D03*
X1842500D02*
D03*
X1907500D02*
D03*
X1972500D02*
D03*
X2037500D02*
D03*
X2102500D02*
D03*
X2167500D02*
D03*
X2232500D02*
D03*
X2297500D02*
D03*
X2362500D02*
D03*
X2427500D02*
D03*
X2492500D02*
D03*
X2557500D02*
D03*
X2622500D02*
D03*
D16*
X2438400Y4734500D02*
D03*
Y4409500D02*
D03*
D17*
X3269460Y3073536D02*
D03*
X3059460D02*
D03*
X3933600Y2394510D02*
D03*
X4143600D02*
D03*
X3933600Y2734023D02*
D03*
X4143600D02*
D03*
X3933600Y3073536D02*
D03*
X4143600D02*
D03*
X3933600Y3413049D02*
D03*
X4143600D02*
D03*
X2303000Y3640000D02*
D03*
X2513000D02*
D03*
X2302920Y2156460D02*
D03*
X2512920D02*
D03*
X3069840Y2734023D02*
D03*
X3279840D02*
D03*
D18*
X2105900Y2395220D02*
D03*
X1960900D02*
D03*
X3384120Y3888210D02*
D03*
X3239120D02*
D03*
X3239660Y3632200D02*
D03*
X3384660D02*
D03*
X3239660Y4111790D02*
D03*
X3384660D02*
D03*
X2476445Y3413760D02*
D03*
X2331445D02*
D03*
X2105870D02*
D03*
X1960870D02*
D03*
X2609960Y1912620D02*
D03*
X2464960D02*
D03*
X3373960Y1142590D02*
D03*
X3228960D02*
D03*
X2825640Y755445D02*
D03*
X2970640D02*
D03*
X2825640Y1141170D02*
D03*
X2970640D02*
D03*
X1022240Y368300D02*
D03*
X1167240D02*
D03*
X2248740Y369720D02*
D03*
X2103740D02*
D03*
X1743600Y368300D02*
D03*
X1888600D02*
D03*
X1394240D02*
D03*
X1539240D02*
D03*
X2971180D02*
D03*
X2826180D02*
D03*
X2609960Y369720D02*
D03*
X2464960D02*
D03*
X2826180Y1525475D02*
D03*
X2971180D02*
D03*
X2970640Y1912620D02*
D03*
X2825640D02*
D03*
X3228960Y1912619D02*
D03*
X3373960D02*
D03*
X3374500Y1526185D02*
D03*
X3229500D02*
D03*
X1527920Y1686790D02*
D03*
X1382920D02*
D03*
X3243580Y3412340D02*
D03*
X3098580D02*
D03*
X3664060Y3413760D02*
D03*
X3519060D02*
D03*
X2847560Y3412340D02*
D03*
X2702560D02*
D03*
X3666600Y2393800D02*
D03*
X3521600D02*
D03*
X3653900Y2733313D02*
D03*
X3508900D02*
D03*
X3653900Y3072826D02*
D03*
X3508900D02*
D03*
X1527920Y1912620D02*
D03*
X1382920D02*
D03*
X2249280D02*
D03*
X2104280D02*
D03*
X1888600D02*
D03*
X1743600D02*
D03*
X6981080Y4376420D02*
D03*
X7126080D02*
D03*
X6751540D02*
D03*
X6606540D02*
D03*
X1167240Y1912620D02*
D03*
X1022240D02*
D03*
X1167240Y1686790D02*
D03*
X1022240D02*
D03*
X3253960Y2393800D02*
D03*
X3108960D02*
D03*
X2847560D02*
D03*
X2702560D02*
D03*
X2812940Y3888210D02*
D03*
X2957940D02*
D03*
X2960480Y4111790D02*
D03*
X2815480D02*
D03*
X1167240Y3886790D02*
D03*
X1022240D02*
D03*
X2331445Y2395220D02*
D03*
X2476445D02*
D03*
X1167240Y4111790D02*
D03*
X1022240D02*
D03*
D19*
X7579360Y4803140D02*
D03*
Y4434840D02*
D03*
Y5163820D02*
D03*
D20*
X4300000Y4370000D02*
D03*
Y3920000D02*
D03*
X3700000Y4370000D02*
D03*
Y3920000D02*
D03*
X4300000Y1943520D02*
D03*
Y1493520D02*
D03*
X3700000Y1943520D02*
D03*
Y1493520D02*
D03*
D21*
X1457960Y926080D02*
D03*
Y1116080D02*
D03*
X1206960D02*
D03*
Y1021080D02*
D03*
Y926080D02*
D03*
X1457960Y1021080D02*
D03*
D22*
X632900Y990600D02*
D03*
Y1055600D02*
D03*
Y1120600D02*
D03*
Y860600D02*
D03*
Y925600D02*
D03*
D23*
X3581400Y368300D02*
D03*
X3454400D02*
D03*
X3327400D02*
D03*
X3200400D02*
D03*
Y863300D02*
D03*
X3327400D02*
D03*
X3454400D02*
D03*
X3581400D02*
D03*
D24*
X2033640Y3129000D02*
D03*
Y2900000D02*
D03*
Y2671000D02*
D03*
D25*
X2619640Y2900000D02*
D03*
D26*
X2997200Y4752000D02*
D03*
Y4392000D02*
D03*
X1701800Y4925400D02*
D03*
Y5285400D02*
D03*
Y4142400D02*
D03*
Y3782400D02*
D03*
D27*
X1532600Y4521200D02*
D03*
X1972600D02*
D03*
Y5723830D02*
D03*
X1532600D02*
D03*
D28*
X1105920Y5720080D02*
D03*
X916940Y5720080D02*
D03*
D29*
X2296000Y4133600D02*
D03*
Y4038600D02*
D03*
Y3943600D02*
D03*
X2530000D02*
D03*
Y4038600D02*
D03*
Y4133600D02*
D03*
D36*
X7700000Y300000D02*
D03*
Y5700000D02*
D03*
X300000Y300000D02*
D03*
Y5700000D02*
D03*
D37*
X6989000Y5597000D02*
D03*
X4699000Y5676900D02*
D03*
X4700000Y400000D02*
D03*
X1099820Y2500000D02*
D03*
Y3300000D02*
D03*
X6989000Y657000D02*
D03*
D38*
X6735000Y5597000D02*
D03*
X6481000D02*
D03*
X6227000D02*
D03*
X5973000D02*
D03*
X5719000D02*
D03*
X5465000D02*
D03*
X5211000D02*
D03*
Y5343000D02*
D03*
X5465000D02*
D03*
X5719000D02*
D03*
X5973000D02*
D03*
X6227000D02*
D03*
X6481000D02*
D03*
X6735000D02*
D03*
X6989000D02*
D03*
X3683000Y5676900D02*
D03*
X3937000D02*
D03*
X4191000D02*
D03*
X4445000D02*
D03*
X4446000Y400000D02*
D03*
X4192000D02*
D03*
X3938000D02*
D03*
X1607820Y2500000D02*
D03*
X1353820D02*
D03*
X1607820Y3300000D02*
D03*
X1353820D02*
D03*
X6989000Y403000D02*
D03*
X6735000D02*
D03*
X6481000D02*
D03*
X6227000D02*
D03*
X5973000D02*
D03*
X5719000D02*
D03*
X5465000D02*
D03*
X5211000D02*
D03*
Y657000D02*
D03*
X5465000D02*
D03*
X5719000D02*
D03*
X5973000D02*
D03*
X6227000D02*
D03*
X6481000D02*
D03*
X6735000D02*
D03*
D39*
X4454000Y5163500D02*
D03*
X4327000D02*
D03*
X4200000D02*
D03*
X4073000D02*
D03*
X3946000D02*
D03*
X4454000Y5036500D02*
D03*
X4327000D02*
D03*
X4200000D02*
D03*
X4073000D02*
D03*
X3946000D02*
D03*
D40*
X632900Y1363100D02*
D03*
Y618100D02*
D03*
D41*
X252900Y1378100D02*
D03*
Y603100D02*
D03*
D42*
X527900Y1240600D02*
D03*
Y740600D02*
D03*
D43*
X913500Y4496000D02*
D03*
D44*
X532500Y5004000D02*
D03*
X1167500D02*
D03*
D45*
X4701000Y1027000D02*
D03*
D46*
X4447000D02*
D03*
X4193000D02*
D03*
X3939000D02*
D03*
Y773000D02*
D03*
X4193000D02*
D03*
X4447000D02*
D03*
X4701000D02*
D03*
D47*
X431800Y3370000D02*
D03*
Y2430000D02*
D03*
Y2900000D02*
D03*
%TF.MD5,834b5fe40f518ec480ea891a02ad05a0*%
M02*
